<?xml version="1.0" encoding="UTF-8" standalone="no"?>
<!-- Created with Inkscape (http://www.inkscape.org/) -->

<svg
   width="439.15454mm"
   height="86.762787mm"
   viewBox="0 0 439.15454 86.762787"
   version="1.1"
   id="svg1"
   xml:space="preserve"
   xmlns="http://www.w3.org/2000/svg"
   xmlns:svg="http://www.w3.org/2000/svg"><defs
     id="defs1" /><g
     id="layer1"
     transform="translate(114.38693,-185.22589)"><g
       id="g15"
       transform="translate(0.47838431,77.737451)"><path
         style="fill:#d71a23"
         d="M -52.934729,190.715000 c -1.742572,-1.85639 -3.885693,-6.03182 -4.101164,-7.99028 -0.183976,-1.67219 1.672035,-0.74837 2.046319,1.01854 0.09602,0.45328 0.830716,2.34764 1.632663,4.20968 0.801948,1.86205 1.405785,3.43784 1.341862,3.50177 -0.06392,0.0639 -0.47778,-0.26895 -0.91968,-0.73971 z M -41.155240,189.925210 c -1.685893,-1.63271 -3.505651,-4.33282 -4.716752,-6.9986 -0.963909,-2.12168 -0.920084,-2.80551 0.171524,-2.67641 0.621235,0.0735 0.957476,0.56184 2.713484,3.94112 1.796862,3.4579 2.348739,4.43886 3.672373,6.52764 0.713178,1.12545 -0.318167,0.68069 -1.840629,-0.79375 z M -66.380553,188.006990 c 0.249073,-3.17878 0.892279,-7.51617 1.199813,-8.0908 0.36908,-0.68963 0.734452,-0.63854 1.095167,0.15314 0.392906,0.86234 -0.057,3.58646 -1.158015,7.01161 -1.07049,3.3302 -1.342716,3.55192 -1.136965,0.92605 z M -28.309751,184.435110 c 0,-2.11005 0.04109,-2.97326 0.09131,-1.91823 0.05022,1.05503 0.05022,2.78143 0,3.83646 -0.05022,1.05503 -0.09131,0.19182 -0.09131,-1.91823 z M -76.029810,185.685280 c -0.0055,-0.11278 0.408807,-1.03686 0.920788,-2.05352 0.511981,-1.01665 1.175379,-2.50196 1.474219,-3.30068 0.53496,-1.42981 1.153904,-1.87381 1.468671,-1.05354 0.270971,0.70614 -1.28605,3.86192 -2.599983,5.26967 -0.689485,0.73871 -1.258147,1.25084 -1.263695,1.13807 z M -26.423908,181.459440 c -0.355638,-4.48051 -0.310033,-6.05603 0.184543,-6.37542 0.834005,-0.53858 1.080286,0.14464 1.101377,3.0554 0.01838,2.53722 -0.40918,5.06899 -0.908125,5.37735 -0.112456,0.0695 -0.282463,-0.8563 -0.377795,-2.05733 z M -34.358799,179.145920 c 0.187314,-2.46737 0.241982,-2.64831 0.800144,-2.64831 0.478011,0 0.482595,0.78648 0.01482,2.54318 -0.679864,2.5532 -1.003991,2.59502 -0.814968,0.10513 z M -56.130000,180.010380 c -0.938198,-0.11643 -1.112083,-0.59285 -0.424621,-1.16339 0.239401,-0.19868 1.798325,-1.99936 3.464275,-4.0015 1.66595,-2.00214 3.136952,-3.57354 3.268892,-3.49199 0.453012,0.27997 0.238297,1.13506 -0.755333,3.00805 -1.381042,2.60326 -3.928111,5.90363 -4.474527,5.79788 -0.120335,-0.0233 -0.605743,-0.0904 -1.078686,-0.14905 z M -54.347571,177.356320 l 0.878238,-1.25558 -1.483478,1.4341c -0.815912,0.78875 -1.417625,1.54065 -1.337139,1.67088 0.197053,0.31884 0.881796,-0.33313 1.942379,-1.8494 z M -110.116530,178.509180 c -1.62169,-0.40929 -2.70045,-1.29657 -2.70045,-2.22111 0,-0.96829 1.72258,-2.52083 3.57187,-3.21927 1.51427,-0.57191 1.8415,-0.5934 7.09349,-0.46568 3.028298,0.0737 5.584694,0.2126 5.680883,0.30879 0.27305,0.27305 -0.428613,0.61677 -2.720201,1.33255 -3.938992,1.23034 -3.473102,1.51578 1.299863,0.79638 3.067131,-0.46229 3.065762,-0.46221 3.065762,-0.17245 0,0.39207 -4.009236,2.09543 -6.879167,2.92267 -3.31117,0.95442 -6.42317,1.22009 -8.41205,0.71812 z M -107.525310,173.964610 c 3.61686,-0.77121 3.76099,-0.85054 1.5875,-0.87376 -1.43102,-0.0153 -2.29795,0.12113 -3.10886,0.48922 -1.96997,0.8942 -1.46615,1.02155 1.52136,0.38454 z M -63.157831,178.189780 c -0.409187,-0.22182 -0.697101,-0.54448 -0.639809,-0.71701 0.05729,-0.17254 0.987394,-0.83453 2.066893,-1.4711 1.0795,-0.63657 2.78678,-1.79743 3.793957,-2.57969 1.93429,-1.50233 2.269811,-1.65629 2.269811,-1.0415 0,0.78798 -4.27428,5.00874 -6.001877,5.92671 -0.693098,0.36829 -0.575983,0.37752 -1.488975,-0.11741 z M -47.198837,177.904500 c 8.12e-4,-0.40999 0.112403,-1.16215 0.247981,-1.67147 0.135578,-0.50933 0.434492,-2.41029 0.664253,-4.22438 0.229761,-1.81408 0.516122,-3.3967 0.636358,-3.51694 0.120235,-0.12024 0.386204,-0.0163 0.591042,0.23104 0.282975,0.34165 0.368976,1.3453 0.358043,4.17841 -0.01668,4.32216 -0.156698,5.08343 -0.978413,5.3196 -0.327084,0.094 -0.803057,0.22903 -1.057718,0.30005 -0.362173,0.101 -0.4627,-0.0332 -0.461546,-0.61631 z M 126.258800,177.675170 c -0.32173,-0.32172 -0.42064,-0.9656 -0.41751,-2.71781 0.002,-1.26292 -0.13388,-10.82233 -0.30253,-21.24314 -0.16865,-10.42082 -0.23105,-19.24808 -0.13868,-19.61613 0.20646,-0.82258 0.41293,-0.90438 3.8767,-1.53592 4.88261,-0.89023 5.26532,-0.78578 6.35502,1.7344 0.69694,1.61186 4.81941,11.89196 6.33957,15.80885 0.60712,1.56435 1.22963,2.84427 1.38333,2.84427 0.19477,0 0.22055,-3.11059 0.0851,-10.26381 -0.17393,-9.18313 -0.15039,-10.30032 0.22352,-10.61065 0.31816,-0.26404 1.45929,-0.32453 4.78036,-0.25338 3.63518,0.0779 4.43593,0.167 4.80336,0.53454 0.40802,0.40815 0.41648,1.26735 0.11328,11.50938 -0.99574,33.6359 -0.89358,31.32372 -1.40026,31.69392 -0.45118,0.32964 -4.60953,1.27597 -7.08294,1.61188 -0.94529,0.12838 -1.32074,0.06 -1.76481,-0.32159 -0.35715,-0.30687 -1.79263,-3.69413 -3.91309,-9.23362 -3.35902,-8.77509 -3.70437,-9.59825 -3.92999,-9.36734 -0.067,0.0685 -0.0339,3.99416 0.0734,8.72359 0.13664,6.01912 0.10883,8.79619 -0.0927,9.25636 -0.26003,0.59382 -0.55638,0.69879 -3.06438,1.08535 -5.22901,0.80596 -5.46716,0.82046 -5.92677,0.36085 z M -71.365591,177.644170 c -0.446679,-0.44668 -0.06004,-0.86489 1.335534,-1.44456 0.831558,-0.34541 2.634885,-1.19601 4.007395,-1.89024 3.407785,-1.72367 3.602792,-1.33904 0.522719,1.03103 -2.419968,1.86212 -5.211072,2.95834 -5.865648,2.30377 z M 101.688380,177.446450 c -0.41172,-0.41172 -0.43303,-1.7487 -0.2821,-17.69657 0.11475,-12.12405 0.0703,-18.60652 -0.14969,-21.81142 -0.20919,-3.04823 -0.22574,-4.7232 -0.0499,-5.05175 0.30572,-0.57125 2.36238,-0.72221 13.81712,-1.01416 6.52458,-0.16629 6.79177,-0.15348 7.05493,0.33824 0.30308,0.56632 -0.0776,8.56257 -0.45197,9.49414 -0.20215,0.50299 -0.45995,0.52917 -5.21102,0.52917 h -4.99835 l -0.0731,4.05654 -0.0732,4.05654 4.44423,-0.18804 c 3.86476,-0.16352 4.48909,-0.13397 4.78837,0.22663 0.41656,0.50193 0.33544,8.46728 -0.0905,8.88205 -0.14552,0.14171 -2.22911,0.35569 -4.6302,0.47551 l -4.36563,0.21785 -0.0739,3.68318 c -0.0406,2.02575 0.0355,3.79259 0.16924,3.92632 0.20857,0.20856 5.48153,-0.0434 9.38572,-0.4484 1.43909,-0.1493 2.06125,0.51631 1.89629,2.02872 -0.0677,0.62091 -0.19674,2.53137 -0.28671,4.24547 -0.10602,2.01983 -0.28545,3.2384 -0.5099,3.46285 -0.25971,0.25971 -2.18828,0.39041 -7.71248,0.52269 -4.05139,0.097 -8.44296,0.2514 -9.75903,0.34309 -2.03644,0.14189 -2.45921,0.10038 -2.83824,-0.27865 z M 51.596147,177.305320 c -5.966013,-0.69046 -7.565677,-2.44096 -8.309446,-9.09299 -0.532059,-4.75858 -0.527051,-4.73601 -1.011042,-4.55635 -0.249645,0.0927 -0.126081,-0.13373 0.282543,-0.5177 1.86385,-1.75139 4.533048,-6.21177 5.653836,-9.44788 0.803971,-2.32134 1.117269,-5.65311 0.639944,-6.80547 -0.601345,-1.45178 -1.196699,-1.32667 -3.281498,0.68959 -1.037531,1.00342 -2.174515,2.05778 -2.526632,2.34303 l -0.640214,0.51863 0.614111,-0.84676 c 0.568646,-0.78406 0.601231,-1.01431 0.440141,-3.11004 -0.161157,-2.09659 -0.132701,-2.2973 0.386357,-2.72512 0.30818,-0.254 0.721736,-0.61526 0.919015,-0.80279 0.518069,-0.49248 0.186674,-1.9274 -0.59953,-2.59593 -0.626788,-0.53298 -0.641883,-0.61818 -0.370049,-2.08867 0.37787,-2.04409 1.40126,-4.21806 2.246274,-4.77174 1.870827,-1.22581 8.376638,-2.13471 13.610018,-1.9014 7.846908,0.34983 8.952795,1.70852 10.27575,12.62474 1.006908,8.3084 0.261703,23.47794 -1.407403,28.64936 -0.463038,1.43464 -1.413787,2.68314 -2.452134,3.22009 -2.00186,1.03521 -10.133186,1.71931 -14.470041,1.2174 z M 59.085656,166.286710 c 1.083357,-0.68712 1.23985,-2.06388 1.245305,-10.95574 0.0056,-9.09501 -0.223087,-11.44377 -1.191352,-12.23698 -0.825854,-0.67654 -4.438437,-0.65967 -5.283567,0.0247 -0.567383,0.45944 -0.61623,0.76214 -0.843251,5.22552 -0.270399,5.31625 -0.06488,15.36142 0.344622,16.84454 0.147467,0.53408 0.402147,1.05388 0.565958,1.15512 1.083226,0.66947 4.06877,0.63643 5.162285,-0.0571 z M 73.678719,177.357540 c -0.01956,-0.10914 -0.05255,-8.89 -0.07333,-19.51302 -0.0266,-13.60006 -0.136401,-20.16999 -0.37112,-22.20575 -0.283908,-2.46241 -0.277597,-2.94692 0.04255,-3.26707 0.496016,-0.49601 4.587291,-0.82693 10.406332,-0.84169 8.744995,-0.0222 11.611377,0.81494 13.130202,3.83472 1.115673,2.21822 1.89331,9.02611 1.691325,14.80687 -0.241839,6.92139 -1.241865,9.66199 -4.17689,11.44686 -2.100446,1.27735 -3.971747,1.89417 -7.0628,2.32808 -1.521506,0.21358 -2.882433,0.46006 -3.024283,0.54773 -0.159515,0.0986 -0.223092,2.41353 -0.166648,6.06796 0.05739,3.71584 -0.0069,6.00286 -0.173323,6.16265 -0.529052,0.50807 -10.137781,1.10277 -10.222014,0.63266 z M 87.247584,153.997400 c 1.431494,-0.38546 1.845933,-1.16277 2.003498,-3.75771 0.161051,-2.65235 -0.280017,-7.33378 -0.764398,-8.1132 -0.435536,-0.70083 -1.961538,-1.13685 -3.607626,-1.0308 l -1.242909,0.0801 -0.07108,6.34476 c -0.03909,3.48963 -0.007,6.51182 0.07137,6.71598 0.153089,0.39894 1.596553,0.30337 3.611145,-0.23911 z M -89.136772,175.008910 c -2.147207,-0.44897 -2.946398,-0.94886 -3.633401,-2.27268 -0.442892,-0.85343 -0.45596,-1.04587 -0.124749,-1.83709 0.484217,-1.15673 2.282586,-2.7597 3.985808,-3.55275 2.240065,-1.04301 2.22596,-1.05645 2.328621,2.21871 0.07758,2.47485 0.183756,3.03838 0.793755,4.21264 0.38731,0.74558 0.635357,1.42444 0.551215,1.50858 -0.253119,0.25312 -1.936398,0.13343 -3.901249,-0.27741 z M -87.704624,167.982400 c 0.466806,-0.17233 0.559657,-0.31441 0.345449,-0.52862 -0.340273,-0.34027 -1.683577,0.11799 -2.211904,0.75459 -0.27174,0.32742 -0.203764,0.35696 0.454249,0.19737 0.425594,-0.10322 1.061087,-0.29372 1.412206,-0.42334 z M -82.503145,174.077970 c -2.354754,-1.60302 -3.149229,-3.52718 -2.554195,-6.18607 0.280858,-1.25501 0.583258,-1.76637 1.767756,-2.9893 0.849703,-0.87726 1.518883,-1.37342 1.650827,-1.22398 0.122039,0.13822 0.35625,1.15917 0.520469,2.26877 0.475492,3.21283 1.14704,4.66675 3.016167,6.5301 1.981421,1.9753 1.880612,2.20584 -1.036905,2.37128 -1.988481,0.11275 -2.105663,0.0859 -3.364119,-0.7708 z M -82.680273,165.682630 c 0.526788,-0.43688 0.821968,-0.87326 0.711548,-1.05193 -0.263217,-0.42589 -1.037073,0.0261 -1.743705,1.01849 -0.733214,1.0297 -0.190331,1.04729 1.032157,0.0334 z M -36.774396,173.358570 c -1.752267,-1.14667 -3.20972,-2.57782 -2.920115,-2.86743 0.10515,-0.10514 0.440204,-0.0357 0.744565,0.15442 0.30436,0.19007 0.924024,0.55434 1.377029,0.80948 1.881872,1.0599 3.866355,2.43007 3.866355,2.66948 0,0.5934 -1.601642,0.19351 -3.067834,-0.76595 z M -30.134687,172.115130 c -2.424639,-1.36457 -5.422042,-4.19191 -4.947328,-4.66662 0.210218,-0.21022 0.543569,-0.0673 1.212194,0.51978 0.507232,0.44536 1.197954,0.89289 1.534937,0.99451 0.336983,0.10162 1.773557,0.85362 3.192385,1.67111 2.529295,1.45731 3.127648,2.15726 2.161173,2.52813 -0.705549,0.27075 -0.965339,0.1845 -3.153361,-1.04691 z M 12.066356,172.636910 c -3.192372,-0.5511 -4.1677393,-0.81304 -6.4776058,-1.73959 -5.1636,-2.07124 -7.7143552,-4.79451 -8.9074211,-9.50985 -0.7094096,-2.80379 -0.5559591,-6.31378 0.4443395,-10.16371 1.6287843,-6.26885 4.2141693,-10.82399 9.3713837,-16.51124 4.8019647,-5.29549 10.8404067,-9.09916 17.0786787,-10.75804 2.457069,-0.65338 10.544393,-0.71365 12.123986,-0.0904 0.556316,0.21952 1.017124,0.5135 1.024016,0.6533 0.0069,0.1398 -0.864995,0.58179 -1.937527,0.98221 -4.890332,1.82574 -5.748372,2.22475 -7.94806,3.6961 -4.041024,2.703 -7.464103,6.68619 -9.078932,10.56451 -1.91238,4.59295 -2.517744,7.25776 -2.517813,11.08341 l -4.5e-5,2.52413 -1.081128,1.18003 c -1.701792,1.85749 -3.202316,4.75191 -2.463476,4.75191 0.08776,0 0.772368,-0.55332 1.521354,-1.2296 2.908932,-2.62656 5.981975,-3.35194 9.324017,-2.20091 2.004282,0.69029 5.831006,1.31142 8.087938,1.31278 4.979425,0.003 10.358014,-2.19275 14.383711,-5.87201 0.806715,-0.73729 1.528108,-1.27918 1.603093,-1.20419 0.23318,0.23318 -0.87256,3.18492 -1.966682,5.25 -2.419851,4.56731 -5.804859,8.51775 -9.82966,11.47162 -2.763768,2.02837 -7.122894,4.07442 -10.577892,4.96497 -2.632632,0.67858 -3.62523,0.79747 -7.281483,0.8722 -2.328334,0.0476 -4.53099,0.0351 -4.894792,-0.0277 z M 33.075329,158.777050 c 1.916445,-0.49014 5.339515,-2.05662 5.074106,-2.32203 -0.06606,-0.0661 -0.871856,0.12262 -1.790656,0.41929 -4.356502,1.40665 -8.366044,1.54777 -13.149334,0.4628 -3.394458,-0.76994 -3.719584,-0.79467 -5.166422,-0.39296 -1.310083,0.36374 -0.824365,0.7582 0.940776,0.76402 0.675895,0.002 2.02566,0.25015 2.999478,0.55093 2.626671,0.8113 3.710128,0.97963 6.511068,1.01163 1.743803,0.0199 3.176507,-0.13447 4.580984,-0.49368 z M -1.691978,156.241400 c 0,-0.64626 -0.1136674,-1.17501 -0.2525942,-1.17501 -0.3197833,0 -0.652103,1.7105 -0.4398048,2.26374 0.2872151,0.74847 0.692399,0.11136 0.692399,-1.08873 z M 0.149376,148.584100 C 2.6293144,142.31594 7.6367627,135.78086 13.201439,131.5502 c 2.391898,-1.81849 6.438135,-4.25724 8.787952,-5.29668 1.54307,-0.68257 1.514732,-0.86216 -0.06731,-0.42654 -6.474604,1.7828 -13.7472383,7.07344 -17.7500457,12.91266 -2.355039,3.43549 -4.24875101,7.70669 -5.1858633,11.69651 -0.3157318,1.34425 0.26345617,0.42205 1.16319983,-1.85208 z M -75.150104,172.020200 c -1.622799,-0.73689 -3.127803,-2.22768 -3.829182,-3.79303 -0.509256,-1.13656 -0.622402,-1.84047 -0.626943,-3.90039 -0.0048,-2.16456 0.08629,-2.6941 0.655916,-3.81398 0.609292,-1.19788 3.35322,-3.85894 3.979112,-3.85894 0.144679,0 0.184863,0.79678 0.09674,1.91823 -0.355513,4.5243 1.101744,9.35212 3.518003,11.65496 0.625567,0.5962 1.137394,1.17636 1.137394,1.28924 0,0.41703 -1.595991,1.01239 -2.69884,1.00676 -0.62569,-0.003 -1.63018,-0.22948 -2.232201,-0.50285 z M -77.290700,160.270640 c 1.485145,-1.38217 1.858377,-2.02928 1.170415,-2.02928 -0.541458,0 -2.830028,2.61515 -2.830028,3.23387 0,0.32699 0.06322,0.2811 1.659613,-1.20459 z M -8.187836,170.956010 c -2.7721874,-0.98702 -3.6235784,-1.68126 -4.4732824,-3.64758 -0.460761,-1.06626 -0.462181,-1.1758 -0.02991,-2.30767 0.75286,-1.97134 4.7673117,-5.96565 5.9957287,-5.96565 0.4178846,0 0.5057653,0.19473 0.5074723,1.12448 0.00338,1.83828 0.9149815,5.09727 1.8771284,6.71073 0.4944127,0.8291 1.4882628,2.07816 2.2085559,2.7757 l 1.30962372,1.26825 -0.73153552,0.27813 c -1.1752433,0.44682 -5.1398958,0.30619 -6.6637781,-0.23639 z M -8.901874,162.235930 c 1.3788043,-1.12506 1.7696771,-1.8779 0.9749983,-1.8779 -0.5115769,0 -3.2901025,2.87276 -3.2901025,3.40169 0,0.33515 0.05942,0.33477 0.463021,-0.003 0.254661,-0.21308 1.0880988,-0.89747 1.8520832,-1.52086 z M -105.812440,170.695660 c -1.62847,-0.12558 -2.40654,-0.32959 -3.33715,-0.87496 -2.08463,-1.22168 -2.40601,-3.31148 -0.62376,-4.05615 2.20399,-0.92089 5.6221,-0.1714 11.24387,2.46543 4.53819,2.1286 4.530871,2.7727 -0.02174,1.91353 -1.62028,-0.30578 -3.01034,-0.4916 -3.08901,-0.41293 -0.0787,0.0787 0.3807,0.38067 1.02083,0.6711 l 1.16388,0.52806 -2.11667,-0.0352 c -1.16417,-0.0193 -3.07228,-0.10885 -4.24025,-0.19892 z M -101.291780,167.625840 c -0.97134,-0.7347 -3.45854,-1.50489 -5.1752,-1.60256 -1.94612,-0.11072 -1.90649,-0.093 2.64583,1.18663 3.28792,0.92417 3.17726,0.90598 2.52937,0.41593 z M -67.247755,170.163910 c -1.988422,-0.4969 -3.78976,-2.31846 -5.134531,-5.19216 -0.683498,-1.46061 -0.82626,-2.13561 -0.945402,-4.47003 -0.159556,-3.12626 0.172974,-4.5726 1.605683,-6.9839 1.207742,-2.03267 6.087764,-5.86108 6.695883,-5.25296 0.09488,0.0949 -0.04512,0.91988 -0.3111,1.83335 -0.651303,2.2368 -0.667888,8.27015 -0.0299,10.87746 0.497737,2.03414 1.970328,4.72993 3.584938,6.56275 0.864925,0.98182 1.011136,1.28537 0.731065,1.51781 -1.04033,0.8634 -4.616245,1.50261 -6.196636,1.10768 z M -68.011817,152.029490 c 1.409267,-1.03101 1.988446,-1.60452 1.805309,-1.78766 -0.148305,-0.1483 -0.557466,-0.1974 -0.909248,-0.10911 -0.903166,0.22668 -3.23487,2.14241 -3.881958,3.18942 -0.778517,1.25967 -0.686751,1.71114 0.183339,0.902 0.400182,-0.37216 1.661333,-1.35975 2.802558,-2.19465 z M -17.566978,169.600380 c -2.465664,-0.49028 -6.249358,-2.11038 -7.342188,-3.14378 -0.694136,-0.65639 -0.78792,-1.90518 -0.180911,-2.40895 0.342012,-0.28385 0.827319,-0.2601 2.7782,0.13594 1.703723,0.34587 3.055373,0.44369 4.8404,0.35032 l 2.476601,-0.12954 0.165492,2.33146 c 0.09102,1.2823 0.196906,2.48523 0.235303,2.67318 0.08734,0.42752 -1.327304,0.51858 -2.972897,0.19137 z M -15.779992,165.186670 c 0.122553,-0.37119 -1.454242,-0.44539 -3.23075,-0.15203 -0.849236,0.14024 -0.949143,0.2122 -0.529166,0.38113 0.808854,0.32536 3.633683,0.15324 3.759916,-0.2291 z M -42.006466,167.435630 c -0.08774,-0.32742 -0.161163,-0.84475 -0.16315,-1.14962 -0.002,-0.30486 -0.252491,-0.77953 -0.556676,-1.05482 -0.54272,-0.49115 -0.56004,-0.49097 -0.926042,0.01 -0.205138,0.28055 -0.372978,0.66218 -0.372978,0.84808 0,0.19175 -0.171733,0.27211 -0.396875,0.18571 -0.542697,-0.20825 -0.499452,-0.48171 0.198437,-1.25481 0.592586,-0.65644 0.603189,-0.65775 2.315105,-0.28485 0.945885,0.20604 2.337843,0.3771 3.093239,0.38013 0.755396,0.003 1.436233,0.10711 1.51297,0.23127 0.247995,0.40126 -3.294767,2.68466 -4.165336,2.68466 -0.208536,0 -0.450948,-0.26789 -0.538694,-0.59531 z M -96.148230,166.311150 c -1.091406,-0.7898 -2.143322,-1.44032 -2.33759,-1.4456 -0.194269,-0.005 0.134596,0.54458 0.730809,1.22191 0.596214,0.67733 1.035144,1.2804 0.975402,1.34014 -0.110883,0.11088 -7.182311,-3.4868 -7.752131,-3.944 -0.5793,-0.46481 -0.69084,-1.77571 -0.21312,-2.50481 0.41165,-0.62824 0.56468,-0.67206 1.98781,-0.56912 1.23558,0.0894 1.84798,0.31359 3.083141,1.12883 2.784798,1.83804 6.856971,6.27385 5.708492,6.21825 -0.109141,-0.005 -1.091407,-0.6558 -2.182813,-1.4456 z M -99.343255,162.306460 c -0.719995,-0.78281 -2.839645,-1.8304 -3.110815,-1.53744 -0.097,0.10484 -0.0574,0.23877 0.0881,0.29761 0.14552,0.0589 0.91943,0.50969 1.71979,1.00187 1.772609,1.09004 2.149991,1.15897 1.302895,0.23796 z M -58.201084,167.126480 c -2.16799,-0.94401 -4.843938,-4.63093 -5.508831,-7.59005 -1.003385,-4.46559 -0.697719,-7.71454 1.064698,-11.31673 1.072637,-2.19235 2.114734,-3.45304 4.139639,-5.00796 1.459085,-1.12044 5.643306,-3.32179 6.92563,-3.64363 0.877769,-0.22031 0.875989,-0.20168 -0.234181,2.4504 -0.937312,2.23915 -1.207017,3.87921 -1.207017,7.33983 0,5.02908 1.280365,8.23802 4.686129,11.74471 1.384386,1.4254 1.892369,2.12686 1.78507,2.46493 -0.499627,1.57418 -5.988702,3.93476 -9.117032,3.92077 -0.945886,-0.004 -2.086233,-0.16725 -2.534105,-0.36227 z M -57.282338,145.051070 c 1.14538,-0.67623 2.453651,-1.43232 2.907268,-1.68022 0.507793,-0.2775 0.824758,-0.65881 0.824758,-0.99218 0,-1.1584 -2.069024,-0.44512 -4.908805,1.69227 -1.658882,1.24857 -3.557862,3.48295 -3.557862,4.18625 0,0.13413 0.596729,-0.25575 1.326065,-0.86638 0.729336,-0.61064 2.263195,-1.66352 3.408576,-2.33974 z M -92.126563,166.125940 c -0.174625,-0.17462 -0.3175,-0.44579 -0.3175,-0.60258 0,-0.1568 -0.189321,-0.55538 -0.420713,-0.88574 -0.315428,-0.45034 -0.506703,-0.52929 -0.764329,-0.31548 -0.262609,0.21795 -0.687298,-0.0946 -1.801429,-1.32575 -1.586059,-1.75266 -1.809421,-2.22205 -1.480485,-3.11125 0.161771,-0.43731 0.431049,-0.58545 1.0642,-0.58545 1.299003,0 2.801718,1.73118 3.867776,4.45581 0.792605,2.02574 0.882781,2.68794 0.366031,2.68794 -0.107828,0 -0.338926,-0.14287 -0.513551,-0.3175 z M -29.407083,164.594260 c -0.472942,-0.28836 -0.859895,-0.65092 -0.859895,-0.8057 0,-0.32008 2.018404,-1.29925 2.696364,-1.30806 0.732499,-0.01 0.795326,0.4423 0.218682,1.57262 -0.618713,1.21278 -0.852587,1.27436 -2.055151,0.54114 z M -40.152255,162.183970 c -2.136434,-0.23587 -4.812783,-1.47346 -6.241721,-2.88627 -3.437344,-3.39855 -5.289986,-8.91267 -4.519438,-13.45144 0.719668,-4.23908 3.557791,-8.12026 7.254236,-9.92029 5.32232,-2.59178 10.194603,-2.80007 19.236835,-0.82238 2.295323,0.50202 4.423325,0.91277 4.728893,0.91277 1.241664,0 0.889482,1.22086 -1.06572,3.69437 -0.648211,0.82005 -1.107287,1.68224 -1.107287,2.07959 0,0.74809 1.132603,1.89959 1.866837,1.89797 1.351747,-0.003 4.046138,-2.9804 4.966168,-5.48783 0.580784,-1.58286 0.996368,-1.91952 2.369512,-1.91952 1.442568,0 4.7940677,-0.86842 6.7649138,-1.75288 0.8647156,-0.38806 1.6453956,-0.63238 1.7348443,-0.54293 0.2657984,0.2658 -0.6026097,1.39353 -2.637881,3.42561 -1.6468796,1.64429 -3.1168492,2.7356 -6.2570991,4.64529 -0.619445,0.37671 -0.625965,0.40604 -0.132291,0.59513 0.619174,0.23716 3.086513,-0.0437 6.1555325,-0.70061 0.5262031,-0.11264 0.5732388,-0.0632 0.345307,0.36266 -0.3552362,0.66376 -2.6070457,1.83014 -6.9076145,3.57797 -1.964531,0.79842 -4.881563,2.05248 -6.482292,2.7868 -5.955908,2.73221 -10.43524,3.10656 -14.229984,1.18924 -1.092966,-0.55223 -1.255212,-0.7373 -1.190625,-1.35813 0.06752,-0.64903 -0.01645,-0.72644 -0.86537,-0.79779 -0.653645,-0.0549 -1.1636,0.0968 -1.673405,0.49777 -1.264827,0.99491 -1.595357,2.83557 -0.352918,1.96534 0.802176,-0.56187 1.01841,-0.51754 2.570478,0.52692 1.909624,1.28508 3.899997,1.83229 6.613699,1.8183 2.542589,-0.0131 4.691314,-0.40949 7.011458,-1.29342 0.873125,-0.33264 2.405701,-0.91969 3.405724,-1.30456 1.000024,-0.38486 1.892992,-0.62105 1.984375,-0.52488 0.202706,0.21334 -6.295158,6.45019 -7.771349,7.45919 -0.582083,0.39786 -1.738351,1.2165 -2.569485,1.8192 -2.496794,1.81057 -6.662666,3.32999 -9.865932,3.5984 -0.727604,0.061 -2.139885,0.0206 -3.138401,-0.0896 z M -29.568193,145.675520 c -0.241022,-0.6281 1.183018,-2.72055 2.067957,-3.03862 1.039995,-0.37379 1.995758,-1.29925 1.995758,-1.93247 0,-0.38293 -0.116285,-0.46368 -0.463021,-0.32152 -0.254662,0.1044 -0.948062,0.24932 -1.54089,0.32204 -1.226243,0.15042 -2.374962,-0.34601 -5.075229,-2.19331 -2.03522,-1.39233 -3.221284,-1.80224 -4.724505,-1.6328 -1.121346,0.12639 -3.013022,1.25449 -3.013022,1.79682 0,0.13811 0.684609,0.25112 1.521354,0.25112 l 1.521354,1e-5 -0.0043,2.61039 c -0.0028,1.6785 -0.121151,2.75114 -0.331556,3.00466 -0.285131,0.34356 0.02171,0.41347 2.385587,0.54351 1.492044,0.0821 3.189056,0.32894 3.77114,0.54856 1.411977,0.53277 2.08356,0.54755 1.88941,0.0416 z M -49.316979,142.727740 c 0,-0.61375 3.23656,-4.08867 4.650868,-4.99339 2.340486,-1.49719 3.405042,-1.94877 5.908784,-2.50646 3.897133,-0.86808 8.363725,-0.60821 15.871466,0.9234 1.804042,0.36804 3.336138,0.61309 3.404658,0.54457 0.140191,-0.14019 -0.07286,-0.19359 -3.774317,-0.94608 -1.455208,-0.29584 -3.360208,-0.72109 -4.233333,-0.945 -2.450854,-0.6285 -8.287824,-0.78878 -10.870261,-0.29849 -2.931689,0.55661 -5.90245,1.8916 -7.901166,3.55062 -1.299102,1.07831 -1.90751,1.8463 -2.758572,3.48215 -0.600532,1.1543 -1.08809,2.19961 -1.083462,2.32291 0.01321,0.35191 0.785335,-0.76325 0.785335,-1.13423 z M 25.809274,151.502020 c -0.871778,-0.47416 -1.281332,-1.39933 -1.485912,-3.35665 -0.169114,-1.61799 -0.851944,-2.86859 -1.566257,-2.86859 -0.210839,0 -0.526208,-0.31356 -0.700821,-0.69679 -0.29215,-0.6412 -0.24505,-0.75725 0.590407,-1.45472 l 0.907884,-0.75793 -0.06381,-2.38373 c -0.03618,-1.35127 0.06167,-2.61819 0.225902,-2.92506 0.684186,-1.27841 3.235058,-2.08867 3.489314,-1.10834 0.167859,0.64722 -0.03472,1.12448 -0.477294,1.12448 -0.206155,0 -0.602415,0.22759 -0.880579,0.50576 -0.442181,0.44218 -0.487403,0.77347 -0.359767,2.63564 0.116965,1.70647 0.05971,2.26155 -0.287997,2.79223 -0.572066,0.87308 -0.551514,1.05604 0.211049,1.87886 0.457193,0.49332 0.694236,1.13295 0.813995,2.19645 0.274672,2.43917 0.451623,2.79462 1.526152,3.06565 1.049073,0.26461 1.427415,0.8104 0.955738,1.37874 -0.386108,0.46523 -2.021817,0.45056 -2.898,-0.026 z M 39.149537,150.171570 c -0.233292,-0.60795 0.06003,-1.10943 0.879543,-1.50373 0.734826,-0.35356 0.744568,-0.38946 0.744568,-2.74377 0,-1.86794 0.105388,-2.5469 0.485719,-3.12925 0.476752,-0.72998 0.475232,-0.75348 -0.08235,-1.27295 -0.734421,-0.68422 -0.957275,-1.30476 -1.188966,-3.31071 -0.202322,-1.75168 -0.355193,-1.97967 -1.595649,-2.37976 -0.592355,-0.19105 -0.79375,-0.41825 -0.79375,-0.89542 0,-0.54148 0.144121,-0.65152 0.940984,-0.71848 1.216257,-0.10219 2.23543,0.29482 2.742159,1.06818 0.221939,0.33872 0.526304,1.5049 0.676368,2.5915 0.27926,2.02211 0.259713,1.98934 2.056635,3.44785 0.522542,0.42413 0.393718,0.89694 -0.498877,1.83095 -0.818659,0.85665 -0.8274,0.8942 -0.662445,2.84561 0.128522,1.52042 0.07093,2.18029 -0.249173,2.85486 -0.640835,1.35046 -3.084273,2.2806 -3.454762,1.31512 z M 32.557422,148.335030 c -0.448937,-0.68516 -1.520736,-0.92567 -1.837941,-0.41242 -0.228082,0.36905 -0.702712,0.31658 -1.313453,-0.14518 -0.366202,-0.27687 -0.522499,-0.71705 -0.529167,-1.49028 -0.0081,-0.94072 -0.122765,-1.16005 -0.803213,-1.53649 -1.062195,-0.58765 -1.206318,-1.65929 -0.302775,-2.25131 0.890512,-0.58349 1.037654,-1.09789 0.533944,-1.86664 -0.39018,-0.5955 -0.389247,-0.70113 0.01159,-1.31289 0.366679,-0.55962 0.611402,-0.65418 1.540801,-0.59531 0.996356,0.0631 1.142464,-0.008 1.487443,-0.72377 0.694613,-1.44123 1.658614,-1.60864 2.285242,-0.39688 0.43488,0.84096 1.091648,1.00694 2.019512,0.51036 0.404272,-0.21636 0.682229,-0.18332 1.175178,0.13967 0.564305,0.36975 0.624499,0.55541 0.477702,1.47342 -0.162153,1.01405 -0.134774,1.06424 0.791803,1.45139 0.830545,0.34702 0.959764,0.51949 0.959764,1.28103 0,0.68194 -0.148892,0.94786 -0.661459,1.1814 -0.719893,0.32801 -0.857045,1.06506 -0.349439,1.87787 0.250122,0.40051 0.222416,0.63637 -0.139667,1.18898 -0.394705,0.60239 -0.577534,0.66923 -1.449266,0.52984 -1.064125,-0.17016 -1.495372,0.1086 -1.673344,1.08167 -0.06858,0.37495 -0.342001,0.55297 -0.938226,0.61086 -0.661314,0.0642 -0.936401,-0.0632 -1.285034,-0.59532 z M 34.700258,144.627350 c 0.818575,-0.81858 0.862348,-2.18353 0.101062,-3.15135 -0.442432,-0.56246 -0.770966,-0.69714 -1.700589,-0.69714 -0.929622,0 -1.258157,0.13468 -1.700588,0.69714 -1.76981,2.24995 1.2847,5.16676 3.300115,3.15135 z M -20.565589,142.189970 c -0.305532,-0.30553 -0.208142,-0.49107 1.138518,-2.16904 1.520583,-1.89468 2.12178,-3.55535 2.31498,-6.39457 0.257518,-3.78445 -0.93307,-6.98811 -3.693797,-9.93933 -4.175997,-4.46416 -10.367835,-6.72743 -17.398591,-6.35963 -6.26691,0.32784 -11.984599,2.47852 -20.505208,7.71292 -7.701062,4.73094 -12.100732,6.87091 -16.933334,8.23628 -2.423339,0.68467 -3.01295,0.74712 -7.011459,0.74258 -5.091257,-0.006 -7.321028,-0.46148 -10.924582,-2.23267 -2.265152,-1.11334 -2.221249,-1.12215 0.605832,-0.12159 2.986906,1.05713 5.731421,1.50636 9.260417,1.51578 7.088277,0.0189 11.638028,-1.64719 22.754167,-8.33255 9.921986,-5.96718 14.859243,-8.11119 20.617452,-8.95315 2.991834,-0.43747 8.001312,-0.18653 10.735674,0.53777 9.25923,2.45266 15.386906,10.06929 14.419717,17.92353 -0.501133,4.06955 -4.019991,9.19347 -5.379786,7.83367 z M -8.565939,132.907510 c 0.00286,-0.10914 0.1773029,-1.15094 0.3876442,-2.31511 0.7746241,-4.28728 0.2338859,-7.7143 -1.711653,-10.84791 -1.4950112,-2.40797 -2.1117052,-3.07332 -4.4990132,-4.85402 -4.944038,-3.68776 -12.921187,-5.61899 -20.003402,-4.84272 -3.642242,0.39922 -9.212045,2.04219 -12.014199,3.54393 -1.236927,0.66289 -2.546615,1.28257 -2.910417,1.37705 -1.3404,0.34811 0.820654,-1.13077 3.042708,-2.08223 1.164167,-0.49849 2.955427,-1.267 3.980577,-1.70781 2.310044,-0.9933 5.984775,-1.82758 9.529148,-2.16341 4.742207,-0.44933 10.696835,0.6112 15.065276,2.68315 3.346095,1.58705 4.78223,2.56277 6.75187,4.58725 2.0751236,2.1329 2.6836738,3.12028 3.7007732,6.00455 0.6458383,1.83146 0.7826156,2.63988 0.7869286,4.65113 0.0062,2.89229 -0.3910309,4.97333 -1.0810231,5.66333 -0.5088101,0.50881 -1.0346962,0.66414 -1.0252177,0.30282 z M -67.056030,123.846930 c 1.230346,-0.43733 2.36144,-0.79026 2.513542,-0.78429 0.565931,0.0222 -2.673606,1.26944 -3.6922,1.42147 -0.716714,0.10698 -0.336256,-0.0987 1.178658,-0.63718 z M -61.487813,121.599220 c 0,-0.0713 1.071563,-0.6678 2.381251,-1.32557 1.309687,-0.65776 2.38125,-1.08822 2.38125,-0.95657 0,0.13165 -0.986711,0.72816 -2.192691,1.32557 -2.142486,1.06134 -2.56981,1.2204 -2.56981,0.95657 z M -56.460729,118.981030 c 0,-0.19482 3.736929,-2.55042 4.653602,-2.93343 0.980055,-0.4095 0.988146,-0.40801 0.53043,0.0978 -0.563033,0.62215 -5.184032,3.14983 -5.184032,2.83567 zM 167.8564,131.9211 C 167.2475,132.0067 166.6262,132.0222 166.0213,132.1310 C 165.6231,132.2025 165.2299,132.3042 164.8339,132.3860 C 164.2949,132.5435 163.7311,132.6836 163.2148,132.9048 C 162.9648,133.0119 162.7170,133.1520 162.4592,133.2365 C 162.1345,133.4232 161.8090,133.5905 161.4877,133.7815 C 161.1811,133.9636 160.9225,134.2125 160.6241,134.4050 C 160.3389,134.6857 160.0316,134.9319 159.7605,135.2288 C 159.4662,135.5822 159.2209,135.9505 158.9487,136.3180 C 158.7241,136.7317 158.4867,137.1403 158.3054,137.5726 C 158.1506,137.9417 158.0503,138.3398 157.8804,138.7018 C 157.8261,138.9588 157.7163,139.1998 157.6589,139.4546 C 157.5085,140.1210 157.3421,140.7878 157.2317,141.4620 C 157.0882,142.6735 156.9557,143.8780 156.9168,145.1004 C 156.9035,146.4008 156.9175,147.6926 157.0207,148.9897 C 157.0853,149.7097 157.2311,150.4128 157.3552,151.1226 C 157.4428,151.3661 157.4943,151.6250 157.5582,151.8753 C 157.6457,152.2177 157.7923,152.5426 157.9005,152.8790 C 157.9970,153.0294 158.0403,153.2169 158.1113,153.3809 C 158.2231,153.6387 158.3755,153.8881 158.5109,154.1337 C 158.8043,154.5549 159.0792,154.9866 159.4028,155.3883 C 159.7696,155.7847 160.1429,156.1697 160.5162,156.5594 C 160.7611,156.7670 161.0016,157.0099 161.2718,157.1834 C 161.5237,157.3452 161.7937,157.5084 162.0274,157.6936 C 162.4797,157.8919 162.8793,158.2314 163.3227,158.4457 C 164.4764,159.0033 165.5991,159.6299 166.7770,160.1389 C 167.1770,160.3118 167.5512,160.5972 167.9643,160.7397 C 168.5558,161.1244 169.1521,161.4196 169.6915,161.8882 C 169.9178,162.1375 170.1039,162.3782 170.2801,162.6651 C 170.4094,162.9098 170.4866,163.1598 170.5824,163.4179 C 170.6430,163.7585 170.6989,164.0738 170.7022,164.4216 C 170.7007,164.8108 170.6473,165.1681 170.5879,165.5507 C 170.4981,165.8529 170.3973,166.1167 170.2312,166.3848 C 170.0576,166.6008 169.8729,166.7478 169.6727,166.9308 C 169.4438,167.0589 169.1923,167.1742 168.9358,167.2282 C 168.3923,167.2992 167.8672,167.3796 167.3167,167.4079 C 166.5591,167.4431 165.8058,167.3873 165.0499,167.3428 C 164.3614,167.2811 163.6830,167.1655 162.9989,167.0747 C 162.6444,166.9733 162.2777,166.9274 161.9194,166.8377 C 161.4848,166.7288 161.0604,166.5769 160.6241,166.4801 C 159.9637,166.3335 159.3547,166.0052 158.6811,165.8894 C 158.3785,165.8783 158.1758,166.0002 157.9255,166.1478 C 157.7669,166.3169 157.6577,166.4726 157.5531,166.6799 C 157.4895,166.9725 157.4197,167.2637 157.3555,167.5581 C 157.1127,169.7758 156.8773,172.0074 156.5072,174.2076 C 156.4678,174.5827 156.4710,174.9601 156.4800,175.3368 C 156.5007,175.5726 156.5957,175.7826 156.7491,175.9641 C 157.0115,176.2134 157.3095,176.3051 157.6016,176.4970 C 158.1066,176.6609 158.5971,176.8817 159.1129,177.0181 C 159.4003,177.0940 159.6988,177.1467 159.9764,177.2586 C 160.5539,177.3737 161.1307,177.5000 161.7035,177.6353 C 162.9595,177.8323 164.2076,177.9954 165.4816,178.0465 C 167.1110,178.0801 168.7179,178.0570 170.3391,177.8855 C 171.0266,177.7740 171.7065,177.6577 172.3901,177.5297 C 172.7176,177.4683 173.0311,177.3327 173.3616,177.2777 C 173.8293,177.1012 174.3007,176.9424 174.7648,176.7552 C 175.0203,176.6522 175.2577,176.4836 175.5205,176.3958 C 175.8679,176.1715 176.2420,175.9494 176.5999,175.7488 C 176.8342,175.6174 177.0260,175.4038 177.2476,175.2522 C 177.5002,175.0046 177.7668,174.7738 178.0032,174.5098 C 178.2990,174.1794 178.5276,173.8053 178.7959,173.4548 C 178.9698,173.1158 179.2012,172.8029 179.3471,172.4511 C 179.5346,171.9989 179.6737,171.5140 179.8810,171.0711 C 179.9639,170.6896 180.0905,170.3175 180.1908,169.9419 C 180.3442,169.3666 180.3699,168.7623 180.5124,168.1854 C 180.6948,166.8969 180.7760,165.5970 180.8270,164.2961 C 180.8190,163.2441 180.7206,162.2059 180.6310,161.1595 C 180.5281,160.3550 180.3279,159.5725 180.1960,158.7758 C 180.0476,158.3307 179.8871,157.8513 179.7850,157.3957 C 179.5752,156.8846 179.3264,156.3968 179.1119,155.8901 C 178.8206,155.4718 178.5586,155.0420 178.2458,154.6355 C 177.8732,154.2025 177.4441,153.8553 177.0317,153.4668 C 176.6922,153.2464 176.4041,152.9459 176.0602,152.7339 C 175.8099,152.5795 175.5300,152.4161 175.3046,152.2243 C 174.9292,152.0564 174.5811,151.7979 174.2251,151.5946 C 173.7702,151.3350 173.3017,151.0933 172.8219,150.8864 C 172.1598,150.6010 171.5490,150.1815 170.8789,149.9061 C 170.5434,149.7682 170.2469,149.5227 169.9073,149.3989 C 169.6392,149.2077 169.3331,149.0523 169.0438,148.8937 C 168.7381,148.7262 168.4661,148.4778 168.1802,148.2779 C 167.9418,148.0567 167.6968,147.8603 167.4863,147.6096 C 167.3261,147.4089 167.2365,147.1911 167.1008,146.9772 C 166.9951,146.6919 166.9104,146.4042 166.8560,146.1041 C 166.8169,145.6859 166.8167,145.2679 166.8521,144.8495 C 166.9495,144.4332 167.0944,144.0936 167.2953,143.7203 C 167.4640,143.5044 167.6473,143.3605 167.8564,143.1876 C 168.1466,143.0749 168.4275,142.9280 168.7200,142.8112 C 169.0811,142.7409 169.4381,142.6529 169.7994,142.5760 C 170.2973,142.5099 170.8092,142.5087 171.3106,142.5131 C 172.0344,142.5508 172.7479,142.6253 173.4695,142.6769 C 174.4026,142.8053 175.3628,142.9742 176.2761,143.1998 C 176.7358,143.3134 177.2056,143.4715 177.6793,143.5164 C 177.9751,143.5168 178.1870,143.3987 178.4350,143.2558 C 178.6876,142.9755 178.7996,142.6990 178.9075,142.3402 C 179.1229,140.6695 179.2803,138.9931 179.4874,137.3217 C 179.6046,136.3763 179.8042,135.3917 179.7684,134.4361 C 179.7446,134.1609 179.6478,133.9232 179.5177,133.6833 C 179.3826,133.5147 179.2403,133.4302 179.0826,133.2916 C 178.7793,133.1322 178.4368,133.0490 178.1111,132.9485 C 177.4353,132.7400 176.7523,132.5496 176.0602,132.3844 C 175.5903,132.3138 175.1280,132.1964 174.6569,132.1341 C 173.8356,132.0255 173.0016,131.9445 172.1742,131.8936 C 170.7908,131.8152 169.3453,131.7841 167.9643,131.9080 ZM 290.4814,132.1771 C 288.4301,132.2769 286.3578,132.3214 284.3286,132.6291 C 284.0243,132.7324 283.7529,132.8451 283.4651,132.9847 C 283.2412,133.1650 283.0569,133.3285 282.8777,133.5578 C 282.5294,134.2004 282.3511,134.8746 282.1213,135.5652 C 282.0801,135.8223 281.9773,136.0677 281.9092,136.3180 C 281.8065,136.6957 281.7144,137.0724 281.5998,137.4472 C 281.2827,138.4843 281.0732,139.5538 280.7416,140.5837 C 280.5047,141.3193 280.3336,142.0920 280.1525,142.8421 C 279.8273,144.1884 279.4122,145.5154 279.0650,146.8568 C 278.4366,149.2851 277.6482,151.6790 277.1180,154.1337 C 277.0510,154.3167 277.0529,154.4874 276.8804,154.5928 C 276.6690,154.2226 276.5965,153.7912 276.4891,153.3809 C 276.3134,152.7097 276.1219,152.0488 275.9620,151.3735 C 275.7644,150.5384 275.5475,149.6904 275.3082,148.8642 C 275.2119,148.5318 275.0874,148.1973 275.0103,147.8605 C 274.7619,146.7754 274.4986,145.6569 274.1459,144.5985 C 274.1008,144.2981 273.9847,144.0168 273.9236,143.7203 C 273.7840,143.0427 273.5610,142.3849 273.3939,141.7129 C 273.0614,140.3753 272.6656,139.0495 272.3951,137.6981 C 272.2686,137.0658 272.0632,136.4521 271.9472,135.8162 C 271.8448,135.5764 271.8069,135.3126 271.7307,135.0634 C 271.6399,134.7669 271.5061,134.4822 271.4177,134.1852 C 271.2544,133.8944 271.1392,133.5975 270.9435,133.3214 C 270.6902,133.0025 270.4197,132.8426 270.0800,132.6386 C 269.4926,132.4964 268.9584,132.4697 268.3528,132.5108 C 267.4857,132.5853 266.6256,132.7393 265.7621,132.8397 C 264.7888,132.9528 263.8066,133.0694 262.8477,133.2696 C 262.6705,133.3297 262.4826,133.3498 262.3079,133.4119 C 262.1238,133.4772 261.9530,133.5807 261.7682,133.6400 C 261.5823,133.7788 261.3813,133.8860 261.2285,134.0698 C 261.0851,134.2722 261.0120,134.4816 260.8883,134.6870 C 260.8157,134.9240 260.7712,135.1920 260.7537,135.4398 C 260.5961,139.1223 260.3315,142.8013 260.1141,146.4805 C 259.7236,153.0863 259.3523,159.6952 258.9890,166.3035 C 258.8488,168.8548 258.6902,171.4046 258.5629,173.9567 C 258.5233,174.7503 258.4006,175.5464 258.3922,176.3405 C 258.4042,176.5524 258.4490,176.7663 258.5142,176.9678 C 258.6011,177.0980 258.6527,177.2272 258.7619,177.3442 C 258.8997,177.4610 259.0307,177.5241 259.1776,177.6227 C 259.3561,177.6692 259.5336,177.6787 259.7172,177.6877 C 261.0476,177.6759 262.3861,177.5543 263.7112,177.4507 C 264.6804,177.3750 265.6609,177.3665 266.6257,177.2437 C 266.8874,177.1940 267.1426,177.1614 267.3813,177.0393 C 267.5933,176.9198 267.6806,176.7753 267.8131,176.5812 C 268.0002,176.1898 268.0309,175.7652 268.0588,175.3368 C 268.1709,171.0722 268.3622,166.8050 268.4183,162.5396 C 268.4364,161.1593 268.4962,159.7799 268.5231,158.3994 C 268.5379,157.6389 268.4383,156.7502 268.6766,156.0178 C 268.8014,156.5619 268.9822,157.1043 269.1229,157.6466 C 269.5990,159.4826 269.9674,161.3423 270.4786,163.1669 C 270.6651,163.8325 270.8236,164.5133 271.0250,165.1743 C 271.1363,165.5398 271.2687,165.9241 271.3297,166.3035 C 271.6134,167.0766 271.7636,167.8987 271.9886,168.6873 C 272.2362,169.5547 272.5541,170.4335 272.7266,171.3220 C 272.8586,171.7121 272.9520,172.1022 273.1813,172.4511 C 273.3471,172.6437 273.5404,172.7329 273.7501,172.8618 C 274.0678,172.9497 274.3932,172.9836 274.7216,172.9966 C 276.1247,173.0247 277.5294,172.9337 278.9314,172.8846 C 279.2895,172.8560 279.5804,172.7518 279.9029,172.6095 C 280.0392,172.4735 280.1662,172.3573 280.2823,172.2002 C 280.3564,172.0344 280.4167,171.8650 280.4883,171.6984 C 280.5579,171.3166 280.6841,170.9401 280.7936,170.5692 C 280.9898,169.9051 281.1343,169.2239 281.3337,168.5618 C 281.4823,168.0684 281.5868,167.5555 281.7112,167.0563 C 281.8783,166.3856 282.0907,165.7219 282.2459,165.0489 C 282.3238,164.7112 282.4425,164.3799 282.5328,164.0452 C 282.9038,162.6698 283.2602,161.2872 283.6099,159.9049 C 283.7999,159.1541 283.9547,158.3963 284.1479,157.6466 C 284.2226,157.3570 284.2514,157.0543 284.3367,156.7684 C 284.3970,156.5662 284.4368,156.3478 284.4819,156.1411 C 284.5183,155.9745 284.5012,155.8491 284.6525,155.7419 C 284.7628,155.8249 284.7608,156.0142 284.7708,156.1411 C 284.8726,160.3246 285.0900,164.5056 285.2242,168.6873 C 285.2833,170.5279 285.3589,172.3679 285.4380,174.2076 C 285.4759,175.0874 285.4677,175.9689 285.5884,176.8423 C 285.6932,177.0657 285.7785,177.1762 285.9478,177.3492 C 286.1941,177.5068 286.4154,177.5404 286.7034,177.5721 C 288.4292,177.6531 290.1656,177.3506 291.8848,177.2607 C 292.4620,177.1828 293.0362,177.0930 293.6119,177.0071 C 293.9852,176.8957 294.3313,176.7913 294.6913,176.6512 C 294.8914,176.4662 295.0070,176.3218 295.1496,176.0896 C 295.2003,175.8856 295.2288,175.6725 295.2305,175.4622 C 295.1116,172.4055 294.8499,169.3555 294.6613,166.3035 C 294.5013,163.7129 294.4350,161.1124 294.2285,158.5248 C 294.1617,156.4752 294.0338,154.4240 293.9144,152.3772 C 293.7411,149.4094 293.6413,146.4371 293.4861,143.4694 C 293.3680,141.2111 293.2523,138.9526 293.1561,136.6944 C 293.1099,135.6084 293.1103,134.5150 293.0034,133.4324 C 292.9543,133.1676 292.8685,132.9286 292.7717,132.6796 C 292.6296,132.4911 292.5209,132.3711 292.3165,132.2479 C 291.7444,132.1020 291.1771,132.1320 290.5894,132.1662 ZM 307.7526,132.1771 C 306.3859,132.2271 305.0170,132.3104 303.6507,132.3470 C 302.1802,132.3864 300.6816,132.4151 299.2250,132.6274 C 298.9279,132.7175 298.7000,132.8328 298.4810,133.0560 C 298.2675,133.3138 298.2093,133.6245 298.1100,133.9342 C 297.9840,135.2165 298.1156,136.5396 298.1627,137.8236 C 298.2318,139.7036 298.2894,141.5883 298.3086,143.4694 C 298.3398,146.5225 298.4532,149.5755 298.4918,152.6281 C 298.5431,156.6852 298.6252,160.7413 298.7061,164.7979 C 298.6881,166.8458 298.7346,168.8974 298.7446,170.9456 C 298.7531,172.7000 298.6971,174.4616 298.7568,176.2150 C 298.7696,176.4686 298.8098,176.7189 298.8586,176.9678 C 298.9400,177.1296 298.9954,177.2705 299.1170,177.4088 C 299.2419,177.5201 299.3892,177.6155 299.5488,177.6666 C 299.8062,177.7210 300.0389,177.7550 300.3044,177.7498 C 302.4233,177.6404 304.5602,177.5646 306.6732,177.3698 C 307.0654,177.3074 307.4746,177.3218 307.8605,177.2305 C 308.0957,177.1251 308.3126,177.1078 308.5082,176.9236 C 308.6059,176.8186 308.6643,176.7072 308.7456,176.5914 C 308.8118,176.3912 308.8558,176.1749 308.8673,175.9641 C 308.9401,173.2930 308.8800,170.6071 308.8754,167.9345 C 308.8741,167.1818 308.8764,166.4289 308.8740,165.6762 C 308.8731,165.3750 308.8080,164.9776 308.9400,164.7018 C 309.0511,164.5847 309.2229,164.5943 309.3718,164.5688 C 309.6595,164.5194 309.9442,164.4996 310.2354,164.4781 C 311.2445,164.4040 312.2577,164.2319 313.2578,164.0798 C 313.6836,163.9721 314.1228,163.9275 314.5531,163.8398 C 315.0966,163.7291 315.6261,163.5587 316.1722,163.4576 C 316.4542,163.3501 316.7531,163.3021 317.0358,163.2047 C 317.3628,163.0920 317.6769,162.9416 318.0073,162.8357 C 318.1758,162.7295 318.3693,162.6755 318.5471,162.5883 C 318.8430,162.4431 319.1120,162.2330 319.4106,162.0910 C 319.5692,161.9424 319.7704,161.8119 319.9504,161.6889 C 320.2715,161.4697 320.5553,161.1490 320.8139,160.8611 C 321.1070,160.5175 321.3790,160.1621 321.6184,159.7794 C 321.7206,159.6161 321.7963,159.4338 321.9097,159.2776 C 322.0566,158.9403 322.2403,158.6178 322.3675,158.2739 C 322.4444,158.0660 322.4971,157.8503 322.5881,157.6466 C 322.6617,157.2683 322.7878,156.8891 322.8879,156.5174 C 323.0427,155.9429 323.0808,155.3392 323.2209,154.7610 C 323.4955,152.9287 323.6234,151.0882 323.7474,149.2406 C 323.7892,147.5230 323.7349,145.8116 323.6498,144.0967 C 323.5410,143.0518 323.4374,142.0056 323.3387,140.9601 C 323.2250,140.1162 323.0703,139.2818 322.8901,138.4509 C 322.7941,138.2121 322.7609,137.9461 322.6896,137.6981 C 322.6035,137.3983 322.4598,137.1189 322.3770,136.8199 C 322.1538,136.3942 321.9483,135.9790 321.6977,135.5652 C 321.4459,135.2541 321.1958,134.9571 320.9218,134.6646 C 320.5978,134.3929 320.2861,134.1254 319.9504,133.8710 C 319.4885,133.6073 319.0084,133.3939 318.5471,133.1405 C 318.1507,133.0311 317.7479,132.8978 317.3597,132.7611 C 316.2137,132.5287 315.0765,132.3304 313.9055,132.2428 C 311.8870,132.1649 309.8813,132.1281 307.8605,132.1733 ZM 192.4678,132.2960 C 191.0615,132.4680 189.6586,132.6203 188.2579,132.8334 C 187.2852,132.9813 186.3050,133.0599 185.3434,133.2758 C 185.0813,133.4020 184.8358,133.4755 184.5878,133.6378 C 184.3502,133.8772 184.2286,134.1223 184.1123,134.4361 C 183.9463,135.5491 184.0587,136.7021 184.0595,137.8236 C 184.0608,139.6633 184.0782,141.5042 184.0995,143.3439 C 184.1739,149.7840 184.2633,156.2246 184.2931,162.6651 C 184.2805,166.9725 184.2959,171.2809 184.2299,175.5877 C 184.2362,176.0150 184.2525,176.4217 184.3309,176.8423 C 184.4933,177.1530 184.6092,177.3322 184.9116,177.5217 C 185.1706,177.5796 185.4022,177.6115 185.6673,177.6201 C 186.6330,177.6122 187.6200,177.5389 188.5818,177.4547 C 189.7311,177.3542 190.8855,177.3289 192.0360,177.2452 C 192.3916,177.2076 192.7666,177.1939 193.1154,177.1180 C 193.3691,177.0261 193.5697,176.9629 193.7631,176.7658 C 193.8952,176.6041 193.9668,176.4139 194.0226,176.2150 C 194.0728,175.7985 194.0912,175.3792 194.1092,174.9604 C 194.1315,171.5730 194.1583,168.1853 194.1744,164.7979 C 194.1794,163.7524 194.1734,162.7069 194.1857,161.6614 C 194.1915,161.1676 194.1408,160.6444 194.2146,160.1559 C 194.3882,160.0261 194.6329,160.0620 194.8425,160.0553 C 195.2385,160.0428 195.6339,160.0222 196.0299,160.0128 C 197.6129,159.9756 199.1965,159.8722 200.7795,159.8633 C 200.9036,159.8774 200.8586,159.8537 200.9263,159.9049 C 200.9872,160.0696 200.9703,159.9859 200.9794,160.1559 C 200.9794,162.9157 201.0296,165.6761 201.0256,168.4364 C 201.0220,170.8615 200.9830,173.2882 201.0007,175.7132 C 201.0104,176.2028 201.0513,176.6247 201.1763,177.0933 C 201.2812,177.2576 201.3892,177.3956 201.5351,177.5257 C 201.7609,177.6228 201.9286,177.6845 202.1828,177.6983 C 202.7659,177.6947 203.3326,177.6169 203.9099,177.5571 C 204.9174,177.4527 205.9245,177.3570 206.9323,177.2561 C 207.9763,177.0867 209.0318,177.0083 210.0627,176.7818 C 210.2683,176.6622 210.3838,176.5278 210.5265,176.3405 C 210.6092,176.0834 210.6623,175.8576 210.7067,175.5877 C 210.8035,174.2980 210.7596,172.9913 210.7652,171.6984 C 210.7758,169.1907 210.7451,166.6775 210.8110,164.1706 C 210.8780,161.6201 210.8465,159.0682 210.8983,156.5174 C 210.9900,152.0019 211.0255,147.4837 211.0837,142.9675 C 211.1214,140.0403 211.0975,137.1115 211.1829,134.1852 C 211.1760,133.8378 211.1482,133.5199 211.0687,133.1815 C 210.9682,133.0087 210.9095,132.8377 210.7804,132.6796 C 210.6584,132.5489 210.5339,132.4620 210.3866,132.3636 C 210.0504,132.2733 209.7727,132.2141 209.4151,132.2172 C 207.0964,132.3854 204.8121,132.8690 202.5066,133.1405 C 202.2083,133.2003 201.9323,133.3044 201.6431,133.3842 C 201.5326,133.4679 201.4223,133.5285 201.3192,133.6216 C 201.1514,133.7932 201.0722,133.9775 200.9621,134.1852 C 200.8854,134.5220 200.8594,134.8441 200.8501,135.1889 C 200.8814,138.4079 200.8883,141.6307 200.9513,144.8495 C 200.9717,145.8949 200.9712,146.9406 200.9898,147.9860 C 200.9979,148.4421 201.0444,148.9119 200.9968,149.3661 C 200.9213,149.4731 200.6754,149.4529 200.5636,149.4602 C 200.1676,149.4861 199.7728,149.5164 199.3762,149.5366 C 198.2243,149.5954 197.0748,149.6464 195.9220,149.6880 C 195.4576,149.7047 194.9826,149.7827 194.5187,149.7618 C 194.4156,149.7289 194.4131,149.7199 194.3552,149.6170 C 194.3034,149.3308 194.3250,149.0292 194.3199,148.7388 C 194.2934,145.2262 194.3172,141.7128 194.3278,138.2000 C 194.3325,136.6611 194.4223,135.0936 194.3285,133.5578 C 194.2911,133.3396 194.2525,133.1308 194.1571,132.9305 C 194.0483,132.7437 193.9349,132.6084 193.7631,132.4767 C 193.5934,132.3706 193.4157,132.3346 193.2234,132.2835 C 193.0076,132.2597 192.7918,132.2661 192.5757,132.2837 ZM 223.1240,132.3012 C 221.6144,132.3763 220.1012,132.4214 218.5903,132.4667 C 217.6501,132.4949 216.7160,132.4911 215.7838,132.6255 C 215.5598,132.6952 215.3899,132.8057 215.2441,132.9915 C 215.1051,133.1871 215.0260,133.4505 214.9761,133.6833 C 214.8839,134.6016 214.9398,135.5221 214.9548,136.4435 C 214.9801,137.9915 215.0181,139.5382 215.0552,141.0856 C 215.1603,145.4755 215.1878,149.8688 215.2588,154.2591 C 215.3392,159.2331 215.3558,164.2150 215.3564,169.1891 C 215.3566,170.6530 215.3798,172.1165 215.3896,173.5803 C 215.3962,174.5771 215.3326,175.5989 215.4314,176.5914 C 215.5133,176.8898 215.5734,177.1366 215.7838,177.3721 C 216.0257,177.5342 216.2418,177.6347 216.5394,177.6503 C 217.7277,177.6559 218.9172,177.5057 220.1016,177.4341 C 221.2166,177.3668 222.3337,177.3192 223.4479,177.2424 C 223.7701,177.2060 224.1017,177.1958 224.4194,177.1317 C 224.5800,177.0521 224.7122,176.9782 224.8512,176.8632 C 224.9829,176.7062 225.0217,176.5237 225.0968,176.3405 C 225.1363,176.0903 225.1407,175.8400 225.1560,175.5877 C 225.2272,172.8276 225.2250,170.0680 225.2559,167.3072 C 225.2713,165.9296 225.2171,164.5426 225.2970,163.1669 C 225.3493,163.0161 225.3444,163.0035 225.4988,162.9809 C 226.1089,162.9588 226.7234,162.9678 227.3338,162.9717 C 227.5030,163.0536 227.4616,163.1155 227.5139,163.2924 C 227.5758,163.5018 227.6595,163.7064 227.7124,163.9197 C 227.9341,164.8129 228.3065,165.6758 228.5744,166.5544 C 228.9483,167.7805 229.4466,168.9729 229.8352,170.1928 C 230.3581,171.8344 230.9448,173.4551 231.5015,175.0858 C 231.7736,175.8828 232.0957,176.6674 232.3455,177.4696 C 232.5267,177.7855 232.6658,178.0178 232.9470,178.2591 C 233.2483,178.3712 233.4835,178.4262 233.8105,178.4096 C 234.2581,178.3470 234.6708,178.1585 235.1059,178.0575 C 235.8729,177.8795 236.6312,177.5872 237.3727,177.3247 C 237.7233,177.2007 238.0952,177.1170 238.4522,177.0146 C 238.9251,176.8790 239.3844,176.6973 239.8554,176.5596 C 240.3910,176.4030 240.9380,176.2878 241.4746,176.1337 C 241.6247,176.0290 241.7788,175.9738 241.9064,175.8322 C 242.0302,175.6761 242.1312,175.5300 242.1841,175.3368 C 242.2415,174.8737 242.1647,174.5254 242.0744,174.0822 C 241.5356,172.8610 241.0873,171.5805 240.6522,170.3183 C 240.1868,168.9681 239.5875,167.6615 239.1387,166.3035 C 239.0275,165.9668 238.8551,165.6395 238.7492,165.2998 C 238.3934,164.1578 237.9251,163.0395 237.5165,161.9123 C 237.3056,161.3306 237.0650,160.7578 236.9109,160.1559 C 236.9087,160.0386 236.9140,160.0004 236.9715,159.9049 C 237.4553,159.3987 237.9791,158.9362 238.4522,158.4166 C 238.8612,157.9301 239.1931,157.4095 239.5568,156.8938 C 239.6423,156.6768 239.7801,156.4820 239.8734,156.2665 C 239.9980,155.9789 240.0750,155.6663 240.2142,155.3883 C 240.3577,154.7581 240.5328,154.1456 240.6483,153.5063 C 240.7723,152.4616 240.9100,151.4220 240.9747,150.3698 C 241.0443,148.9460 241.0971,147.5299 241.0655,146.1041 C 241.0011,144.9322 240.9662,143.7595 240.8573,142.5911 C 240.7422,141.7969 240.6721,140.9988 240.5395,140.2073 C 240.4482,139.6617 240.2932,139.1235 240.2188,138.5763 C 240.0865,138.2079 240.0229,137.8181 239.8952,137.4472 C 239.7776,137.1055 239.6132,136.7793 239.4772,136.4435 C 239.3567,136.2398 239.2576,136.0236 239.1414,135.8162 C 238.9647,135.5010 238.6931,135.2136 238.4613,134.9379 C 238.1703,134.6109 237.8370,134.2735 237.4806,134.0199 C 237.3037,133.8940 237.1070,133.7868 236.9409,133.6471 C 236.7152,133.5483 236.5127,133.3930 236.2933,133.2812 C 235.9799,133.1215 235.6367,133.0389 235.3218,132.8841 C 234.8173,132.7674 234.3148,132.6282 233.8105,132.5022 C 232.9492,132.3895 232.0890,132.2847 231.2199,132.2405 C 229.6747,132.1689 228.1243,132.1845 226.5783,132.2131 C 225.4644,132.2337 224.3439,132.2253 223.2319,132.2949 ZM 253.3485,132.2949 C 252.7450,132.4022 252.1226,132.4383 251.5134,132.5088 C 249.7823,132.7091 248.0447,132.9426 246.3321,133.2518 C 246.1048,133.3367 245.8878,133.4145 245.6844,133.5509 C 245.5599,133.6814 245.4420,133.7904 245.3275,133.9342 C 245.1583,134.3610 245.0885,134.7233 245.0811,135.1889 C 245.0936,138.6185 245.1766,142.0473 245.1871,145.4768 C 245.2043,151.1646 245.2108,156.8521 245.2343,162.5396 C 245.2473,165.6756 245.2260,168.8131 245.2024,171.9493 C 245.1945,172.9948 245.1848,174.0403 245.1845,175.0858 C 245.1844,175.6254 245.1381,176.1829 245.2296,176.7169 C 245.3400,177.0105 245.3831,177.2360 245.6103,177.4696 C 245.8110,177.6430 246.0711,177.7243 246.3321,177.7529 C 247.0487,177.7720 247.7796,177.6382 248.4910,177.5667 C 250.0421,177.4109 251.5849,177.1966 253.1326,177.0148 C 253.4662,176.9510 253.7816,176.8550 254.1041,176.7543 C 254.2564,176.6443 254.4058,176.5768 254.5359,176.4335 C 254.6536,176.2823 254.7101,176.1384 254.7839,175.9641 C 254.8430,175.5916 254.8659,175.2110 254.8912,174.8349 C 254.9150,173.2036 254.9921,171.5731 255.0109,169.9419 C 255.0583,165.8427 255.1300,161.7445 255.2257,157.6466 C 255.4092,149.7861 255.4076,141.9208 255.5854,134.0597 C 255.5808,133.8079 255.5760,133.5568 255.5430,133.3069 C 255.4246,132.9885 255.3121,132.7396 255.0756,132.4909 C 254.9149,132.3768 254.7291,132.2922 254.5359,132.2509 C 254.1754,132.2132 253.8160,132.2453 253.4564,132.2780 ZM 309.6956,141.8288 C 310.4393,141.7750 311.2332,141.7694 311.9625,141.9446 C 312.1731,142.0357 312.3929,142.1136 312.6101,142.1900 C 312.8331,142.3551 313.0600,142.4866 313.2578,142.6883 C 313.4407,142.8920 313.5648,143.1177 313.7152,143.3439 C 313.7782,143.5512 313.8437,143.7686 313.9221,143.9712 C 314.0831,144.8853 314.1938,145.8028 314.2516,146.7314 C 314.2723,148.1495 314.2851,149.5841 314.1483,150.9971 C 314.0918,151.4208 314.0096,151.8330 313.9385,152.2517 C 313.8512,152.5567 313.7393,152.8361 313.6211,153.1300 C 313.4734,153.3622 313.3316,153.5766 313.1498,153.7842 C 312.9375,153.9649 312.7215,154.1248 312.5021,154.2920 C 312.1418,154.4167 311.7916,154.5441 311.4227,154.6566 C 311.1041,154.7156 310.7733,154.7532 310.4512,154.7939 C 309.8551,154.8280 309.2090,154.8854 308.6161,154.8023 C 308.4958,154.7201 308.4727,154.6563 308.4612,154.5100 C 308.4234,152.0017 308.4395,149.4910 308.4419,146.9823 C 308.4429,145.9367 308.4373,144.8913 308.4373,143.8457 C 308.4373,143.3037 308.4077,142.7559 308.4427,142.2147 C 308.4672,142.0733 308.5009,142.0171 308.6161,141.9327 C 308.9324,141.8811 309.2679,141.8542 309.5876,141.8366 ZM 227.8916,142.0893 C 228.2817,142.1044 228.6752,142.1159 229.0610,142.1826 C 229.2775,142.2579 229.4911,142.3557 229.7086,142.4193 C 229.9500,142.5872 230.1791,142.7461 230.3799,142.9675 C 230.5679,143.2028 230.6920,143.4529 230.8218,143.7203 C 230.9359,144.1793 231.0239,144.6367 231.1262,145.1004 C 231.2040,145.6808 231.2449,146.2720 231.2659,146.8568 C 231.2763,147.5255 231.2769,148.1963 231.2434,148.8642 C 231.1974,149.5373 231.1064,150.2025 231.0286,150.8716 C 230.8993,151.3656 230.7758,151.8189 230.4944,152.2517 C 230.2937,152.5119 230.0634,152.7072 229.8166,152.9191 C 229.6725,152.9858 229.5190,153.0630 229.3848,153.1472 C 229.0239,153.2675 228.6808,153.3032 228.3054,153.3523 C 227.3703,153.3834 226.4344,153.4090 225.4988,153.4267 C 225.3783,153.4062 225.4160,153.4348 225.3646,153.3809 C 225.3301,153.2507 225.3260,153.1387 225.3237,153.0045 C 225.3301,150.6210 225.3023,148.2364 225.3275,145.8531 C 225.3355,145.1006 225.3258,144.3475 225.3242,143.5948 C 225.3233,143.1845 225.2811,142.7437 225.3615,142.3402 C 225.4401,142.2398 225.5938,142.1986 225.7147,142.1810 C 226.4305,142.1225 227.1558,142.1130 227.8736,142.0887 Z"
         id="path16" /><path
         style="fill:#301213"
         d="m -52.491979,193.33702 c -3.362327,-2.46976 -6.591658,-9.17516 -6.281234,-13.04239 0.07526,-0.93764 0.06082,-1.66945 -0.03211,-1.62625 -0.09292,0.0432 -0.849911,0.47472 -1.682196,0.95894 -1.234977,0.71851 -1.538451,1.03472 -1.650322,1.71962 -0.542699,3.32249 -0.768992,4.40216 -1.248387,5.95623 -0.696351,2.25739 -1.843581,4.52818 -2.889523,5.71944 -0.944382,1.0756 -1.28983,1.14769 -1.958554,0.40876 -0.461995,-0.5105 -0.458503,-0.67709 0.101219,-4.82865 1.05303,-7.8105 1.162023,-8.52801 1.388114,-9.13799 0.333357,-0.89937 -0.233196,-0.96749 -1.90341,-0.22884 -1.30431,0.57683 -1.488704,0.76403 -1.911943,1.94101 -1.420792,3.95109 -5.645457,7.98608 -8.0689,7.70663 -1.279428,-0.14754 -1.105329,-1.23851 0.561982,-3.52159 0.796141,-1.09016 1.829452,-2.90554 2.296246,-4.03416 0.466795,-1.12863 0.996632,-2.40923 1.177417,-2.84579 0.180785,-0.43657 0.761972,-1.3593 1.291526,-2.05053 l 0.962826,-1.25677 h -0.809656 c -0.454278,0 -1.187311,0.28805 -1.670067,0.65627 -1.43482,1.09439 -2.966364,1.49354 -5.586573,1.45598 -1.309688,-0.0188 -3.636208,0.0466 -5.170045,0.14538 -2.395002,0.15418 -3.086502,0.0992 -4.897115,-0.38935 l -2.10832,-0.56889 -2.511219,1.17102 c -8.332647,3.88565 -16.202127,4.41003 -18.855687,1.25645 -0.88561,-1.05248 -1.15556,-2.41351 -0.69788,-3.51846 0.49611,-1.19772 1.74377,-2.53551 2.92824,-3.13978 0.55948,-0.28542 1.01724,-0.64328 1.01724,-0.79524 0,-0.15196 -0.33574,-0.5588 -0.74609,-0.90408 -0.41035,-0.34529 -0.9608,-1.10394 -1.22323,-1.68589 -1.14409,-2.53715 0.65106,-4.727 4.26837,-5.20685 l 1.32954,-0.17637 -0.0284,-1.57764 c -0.0268,-1.49256 0.0238,-1.62544 0.93803,-2.46438 1.50792,-1.38366 3.17145,-1.48395 5.98036,-0.36055 0.836081,0.33438 0.884862,0.31592 1.664735,-0.6302 2.497614,-3.03004 6.638124,-0.34698 8.570869,5.55394 0.255119,0.77891 0.614283,1.38906 0.817666,1.38906 0.199486,0 1.046011,-0.17798 1.881165,-0.39551 1.133566,-0.29526 1.790733,-0.67087 2.592597,-1.48184 0.590773,-0.59749 1.572967,-1.37911 2.182653,-1.73695 0.749995,-0.44018 1.295802,-1.03748 1.687573,-1.84677 0.764922,-1.58012 2.662397,-3.43504 4.76292,-4.6561 1.298734,-0.75498 1.84951,-1.26878 2.327194,-2.17096 1.313676,-2.48109 4.932847,-5.461 8.190506,-6.74379 1.053809,-0.41497 1.985541,-1.13585 3.704167,-2.86594 1.561583,-1.57199 2.963536,-2.68729 4.382079,-3.48608 2.298991,-1.29456 6.159038,-2.82689 7.976479,-3.16642 0.643047,-0.12014 1.916301,-0.70454 2.829453,-1.29869 3.994505,-2.59902 6.929907,-3.36003 12.905069,-3.34566 4.013625,0.01 4.746321,0.0908 9.087138,1.00707 2.596832,0.54812 5.097145,0.96012 5.55625,0.91555 0.741808,-0.072 0.844508,-0.18401 0.922501,-1.00602 0.04827,-0.50874 -0.05194,-1.63508 -0.222687,-2.50298 -0.779073,-3.95995 -3.866367,-7.62634 -8.231307,-9.77528 -3.708362,-1.8257 -6.00105,-2.35645 -10.154603,-2.35078 -6.921998,0.009 -11.540907,1.69222 -22.357292,8.14524 -10.315922,6.15444 -14.612273,7.87752 -21.431251,8.59512 -6.624377,0.69711 -14.257562,-1.5765 -19.532164,-5.81784 -1.64695,-1.32432 -2.07996,-2.38752 -1.17058,-2.8742 0.54206,-0.2901 0.43739,-0.33523 3.475413,1.49854 7.641498,4.61246 16.266725,5.33365 24.595996,2.05656 3.229808,-1.27075 10.763526,-5.43936 10.181119,-5.63349 -0.131768,-0.0439 -1.128046,0.22807 -2.213952,0.60442 -7.924732,2.74659 -14.466168,2.53387 -21.081319,-0.68556 -2.869879,-1.3967 -3.473303,-1.9915 -2.97154,-2.92905 0.374578,-0.6999 0.939275,-0.60655 3.964178,0.65536 3.025778,1.26227 5.642508,1.78811 8.986182,1.80581 6.383994,0.0338 11.917864,-2.04361 22.621876,-8.49218 9.369963,-5.64488 14.368095,-7.438 21.960417,-7.8785 6.169898,-0.35796 13.798942,1.72875 18.842698,5.1539 5.6921614,3.86547 8.6552639,10.35746 7.7488749,16.97735 -0.1640881,1.19843 -0.2416254,2.23569 -0.1723052,2.30501 0.2143763,0.21437 1.2855955,-0.45548 3.1556637,-1.97331 0.9865243,-0.8007 1.86314457,-1.38636 1.94804502,-1.30146 0.27165303,0.27166 -0.48147593,2.90934 -1.29468022,4.53437 -0.9226451,1.84371 -2.3969029,3.87718 -3.7404997,5.15932 -1.7676699,1.68681 -1.0660077,1.79035 1.8626204,0.27485 1.1290673,-0.58426 2.1554161,-1.02811 2.2807753,-0.98632 0.12535908,0.0418 -0.1397409,0.77492 -0.5891111,1.62918 -1.5690204,2.98276 -3.6964725,4.88618 -7.6186429,6.81636 -1.4915882,0.73404 -2.7121942,1.47026 -2.7124572,1.63604 -0.0011,0.72496 -8.686347,9.1782 -11.71159,11.39881 -0.979925,0.71929 -1.781682,1.3877 -1.781682,1.48537 0,0.0977 0.446484,0.48525 0.992187,0.86132 1.207802,0.83234 4.726168,1.27246 8.353996,1.04504 l 2.334724,-0.14636 2.163192,-2.1443 c 1.299401,-1.28805 2.8499285,-2.51581 3.8829844,-3.07469 1.4667426,-0.79351 1.7305493,-1.04655 1.7929032,-1.71979 1.1516399,-12.43436 10.9516861,-25.77712 23.0975794,-31.44736 7.351798,-3.43214 14.992917,-4.04136 20.877384,-1.66451 2.870052,1.15926 4.16634,2.34871 3.471769,3.18561 -0.154642,0.18634 -1.444401,0.6779 -2.86613,1.09236 -3.635345,1.05977 -7.203103,2.54935 -9.420734,3.93325 -5.044095,3.14773 -8.670188,7.97951 -10.357183,13.80098 -0.647908,2.23579 -1.35738,7.85006 -1.054034,8.34089 0.08484,0.13728 0.781273,0.24959 1.547624,0.24959 0.827424,0 2.513659,0.34828 4.151572,0.85748 2.594282,0.80652 2.99408,0.85742 6.726959,0.85654 3.662491,-8.7e-4 4.132088,-0.058 6.085416,-0.74047 3.101986,-1.08379 5.208934,-2.45622 8.397197,-5.46978 3.075346,-2.90684 3.550801,-3.0853 4.179054,-1.56856 0.477325,1.15236 0.164027,4.48413 -0.639944,6.80547 -1.446016,4.17516 -3.723951,7.6044 -7.691349,11.57869 -4.946044,4.95464 -10.608513,8.06444 -17.39579,9.55369 -1.701828,0.37341 -3.324487,0.48037 -7.222085,0.47605 -4.667567,-0.005 -5.216302,-0.0579 -7.6729165,-0.73742 -1.4552084,-0.40252 -3.2852994,-1.0245 -4.066869,-1.38218 -1.4889606,-0.68143 -2.4031614,-0.81401 -2.825527,-0.40978 -0.56463072,0.54039 -3.2457445,1.08236 -5.3544145,1.08236 -2.3695057,0 -4.8099921,-0.50854 -6.446051,-1.34319 -0.79993,-0.4081 -1.562992,-0.50967 -3.852328,-0.51281 -4.17674,-0.006 -7.113764,-0.82631 -10.90011,-3.04542 -0.892632,-0.52316 -2.204359,-1.12385 -2.914948,-1.33487 -0.71059,-0.21103 -2.029402,-0.92654 -2.930695,-1.59003 -1.591901,-1.1719 -2.380934,-1.34387 -2.380934,-0.51893 0,0.51262 1.833411,1.84498 4.999994,3.63355 3.294376,1.86074 3.819485,2.41596 4.378696,4.62977 0.59219,2.34437 0.610771,7.22511 0.03689,9.68942 -0.831482,3.57047 -2.487903,6.06612 -3.62302,5.45862 -0.449614,-0.24062 -0.500756,-0.5989 -0.499579,-3.4999 7.2e-4,-1.77751 -0.141796,-4.76613 -0.316704,-6.64137 l -0.318014,-3.40954 -1.045911,-0.75765 c -0.575251,-0.41671 -1.147109,-0.75765 -1.270796,-0.75765 -0.123687,0 -0.224886,0.76117 -0.224886,1.69149 0,3.77571 -1.573224,8.49682 -3.566706,10.70336 -1.068604,1.18282 -2.060457,1.43767 -2.474764,0.63588 -0.156942,-0.30373 -0.03581,-1.46432 0.35208,-3.37344 0.325235,-1.60073 0.676521,-3.94018 0.780637,-5.19878 l 0.189301,-2.28836 -1.807462,-1.18437 c -0.994103,-0.6514 -2.338266,-1.735 -2.987029,-2.40799 -1.642536,-1.70389 -1.86314,-1.62377 -1.86314,0.67668 0,1.04517 -0.132275,2.93174 -0.293944,4.19236 l -0.293943,2.29205 2.003631,3.94358 c 1.101997,2.16897 2.785247,5.19373 3.740555,6.7217 2.009211,3.21364 2.087987,3.79981 0.526116,3.91489 -0.863455,0.0636 -1.363073,-0.11472 -2.645833,-0.94442 -3.212237,-2.0777 -6.340885,-6.31875 -8.389734,-11.37274 -0.920414,-2.27042 -1.02666,-2.75152 -0.890675,-4.03314 0.08492,-0.80037 0.228722,-1.7231 0.319557,-2.05052 0.309402,-1.11527 -0.29118,-0.59445 -1.414642,1.22677 -0.616661,0.99966 -1.672641,2.43089 -2.34662,3.18052 -1.035214,1.15141 -1.201426,1.48292 -1.070845,2.13582 0.235311,1.17656 1.945414,5.64836 3.270044,8.55094 0.650715,1.42588 1.116796,2.76533 1.035737,2.97657 -0.276474,0.72048 -2.033237,0.45551 -3.338988,-0.50361 z m -0.864932,-5.38408 c -0.801947,-1.86204 -1.536646,-3.7564 -1.632663,-4.20968 -0.374284,-1.76691 -2.230295,-2.69073 -2.046319,-1.01854 0.120581,1.09599 1.565571,4.51881 2.509218,5.94372 0.904009,1.36506 2.339915,2.95798 2.511626,2.78627 0.06392,-0.0639 -0.539914,-1.63972 -1.341862,-3.50177 z m 14.0423,2.76602 c -1.323634,-2.08878 -1.875511,-3.06974 -3.672373,-6.52764 -1.756008,-3.37928 -2.092249,-3.86764 -2.713484,-3.94112 -1.091608,-0.1291 -1.135433,0.55473 -0.171524,2.67641 1.211101,2.66578 3.030859,5.36589 4.716752,6.9986 1.522462,1.47444 2.553807,1.9192 1.840629,0.79375 z m -25.928977,-3.63802 c 1.101013,-3.42515 1.550921,-6.14927 1.158015,-7.01161 -0.360715,-0.79168 -0.726087,-0.84277 -1.095167,-0.15314 -0.547253,1.02255 -1.609588,10.46831 -1.118245,9.94288 0.136081,-0.14552 0.611009,-1.39568 1.055397,-2.77813 z m -7.519237,-5.64078 c 0.412325,-0.97016 0.680837,-1.94334 0.596693,-2.16262 -0.314767,-0.82027 -0.933711,-0.37627 -1.468671,1.05354 -0.29884,0.79872 -0.962238,2.28403 -1.474219,3.30068 -0.511981,1.01666 -0.926335,1.94074 -0.920788,2.05352 0.03137,0.63766 2.623024,-2.72994 3.266985,-4.24512 z m 47.282874,0.68666 c 0.208826,-0.72953 0.353358,-2.41481 0.341963,-3.9874 -0.02109,-2.91076 -0.267372,-3.59398 -1.101377,-3.0554 -0.371628,0.23999 -0.446707,0.65396 -0.406806,2.24301 0.08073,3.21511 0.382161,6.32441 0.600058,6.18974 0.112455,-0.0695 0.367228,-0.69498 0.566162,-1.38995 z m -8.06388,-3.08603 c 0.467771,-1.7567 0.463187,-2.54318 -0.01482,-2.54318 -0.558162,0 -0.61283,0.18094 -0.800144,2.64831 -0.189023,2.48989 0.135104,2.44807 0.814968,-0.10513 z m -20.581441,0.40016 c 1.286112,-1.38355 2.539973,-3.17836 3.548485,-5.0794 0.99363,-1.87299 1.208345,-2.72808 0.755333,-3.00805 -0.13194,-0.0815 -1.602942,1.48985 -3.268892,3.49199 -1.66595,2.00214 -3.224874,3.80282 -3.464275,4.0015 -0.687462,0.57054 -0.513577,1.04696 0.424621,1.16339 0.472943,0.0587 0.958351,0.12576 1.078686,0.14905 0.120335,0.0233 0.537053,-0.30003 0.926042,-0.71848 z m -47.579208,-1.64989 c 2.869931,-0.82724 6.879167,-2.5306 6.879167,-2.92267 0,-0.28976 0.0014,-0.28984 -3.065762,0.17245 -4.772965,0.7194 -5.238855,0.43396 -1.299863,-0.79638 2.291588,-0.71578 2.993251,-1.0595 2.720201,-1.33255 -0.09619,-0.0962 -2.652585,-0.23514 -5.680883,-0.30879 -5.25199,-0.12772 -5.57922,-0.10623 -7.09349,0.46568 -1.84929,0.69844 -3.57187,2.25098 -3.57187,3.21927 0,1.6211 2.66479,2.66649 6.21771,2.43918 1.17141,-0.0749 3.35731,-0.49302 4.89479,-0.93619 z m 40.035624,0.51613 c 1.727597,-0.91797 6.001877,-5.13873 6.001877,-5.92671 0,-0.61479 -0.335521,-0.46083 -2.269811,1.0415 -1.007177,0.78226 -2.714457,1.94312 -3.793957,2.57969 -1.079499,0.63657 -2.009601,1.29856 -2.066893,1.4711 -0.05729,0.17253 0.230622,0.49519 0.639809,0.71701 0.912992,0.49493 0.795877,0.4857 1.488975,0.11741 z m 15.989283,-0.0864 c 0.821715,-0.23617 0.961734,-0.99744 0.978413,-5.3196 0.01093,-2.83311 -0.07507,-3.83676 -0.358043,-4.17841 -0.204838,-0.24731 -0.470807,-0.35128 -0.591042,-0.23104 -0.120236,0.12024 -0.406597,1.70286 -0.636358,3.51694 -0.229761,1.81409 -0.528675,3.71505 -0.664253,4.22438 -0.135578,0.50932 -0.247169,1.26148 -0.247981,1.67147 -0.0012,0.58308 0.09937,0.71731 0.461546,0.61631 0.254661,-0.071 0.730634,-0.20604 1.057718,-0.30005 z m -22.7428,-1.05709 c 2.066648,-0.96212 5.403802,-3.60793 5.026533,-3.9852 -0.07224,-0.0722 -1.254313,0.43665 -2.626822,1.13087 -1.37251,0.69423 -3.175837,1.54483 -4.007395,1.89024 -1.395573,0.57967 -1.782213,0.99788 -1.335534,1.44456 0.354933,0.35493 1.577469,0.15536 2.943218,-0.48047 z m -16.81315,-1.87738 c 0.08414,-0.0841 -0.163905,-0.763 -0.551215,-1.50858 -0.609999,-1.17426 -0.71618,-1.73779 -0.793755,-4.21264 -0.102661,-3.27516 -0.08856,-3.26172 -2.328621,-2.21871 -1.703222,0.79305 -3.501591,2.39602 -3.985808,3.55275 -0.331211,0.79122 -0.318143,0.98366 0.124749,1.83709 0.272092,0.52431 0.784199,1.16302 1.138015,1.41935 1.030061,0.74628 5.917199,1.61018 6.396635,1.13074 z m 8.465788,-0.86342 c 0.235671,-0.23568 -0.08067,-0.69756 -1.332386,-1.94541 -1.869127,-1.86335 -2.540675,-3.31727 -3.016167,-6.5301 -0.164219,-1.1096 -0.39843,-2.13055 -0.520469,-2.26877 -0.131944,-0.14944 -0.801124,0.34672 -1.650827,1.22398 -1.184498,1.22293 -1.486898,1.73429 -1.767756,2.9893 -0.595034,2.65889 0.199441,4.58305 2.554195,6.18607 1.258456,0.8567 1.375638,0.88355 3.364119,0.7708 1.133135,-0.0643 2.199316,-0.2559 2.369291,-0.42587 z m 43.063173,-0.29838 c 0,-0.23941 -1.984483,-1.60958 -3.866355,-2.66948 -0.453005,-0.25514 -1.072669,-0.61941 -1.377029,-0.80948 -0.898712,-0.56126 -0.997979,-0.0297 -0.161286,0.86369 1.750512,1.86908 5.40467,3.6373 5.40467,2.61527 z m 6.725236,-0.96248 c 0.966475,-0.37087 0.368122,-1.07082 -2.161173,-2.52813 -1.418828,-0.81749 -2.855402,-1.56949 -3.192385,-1.67111 -0.336983,-0.10162 -1.027705,-0.54915 -1.534937,-0.99451 -0.668625,-0.58706 -1.001976,-0.73 -1.212194,-0.51978 -0.474714,0.47471 2.522689,3.30205 4.947328,4.66662 2.188022,1.23141 2.447812,1.31766 3.153361,1.04691 z m 51.223957,-1.36966 c 8.666933,-2.23396 16.020803,-8.15689 20.407552,-16.43659 1.094122,-2.06508 2.199862,-5.01682 1.966682,-5.25 -0.07498,-0.075 -0.796378,0.4669 -1.603093,1.20419 -4.025697,3.67926 -9.404286,5.87502 -14.383711,5.87201 -2.256932,-0.001 -6.083656,-0.62249 -8.087938,-1.31278 -3.342042,-1.15103 -6.415085,-0.42565 -9.324017,2.20091 -0.748986,0.67628 -1.433595,1.2296 -1.521354,1.2296 -0.73884,0 0.761684,-2.89442 2.463476,-4.75191 l 1.081128,-1.18003 4.5e-5,-2.52413 c 6.9e-5,-3.82565 0.605433,-6.49046 2.517813,-11.08341 1.614829,-3.87832 5.037908,-7.86151 9.078932,-10.56451 2.199688,-1.47135 3.057728,-1.87036 7.94806,-3.6961 1.072532,-0.40042 1.94442,-0.84241 1.937527,-0.98221 -0.0069,-0.1398 -0.4677,-0.43378 -1.024016,-0.6533 -1.579593,-0.62329 -9.666917,-0.56302 -12.123986,0.0904 -6.238272,1.65888 -12.276714,5.46255 -17.0786787,10.75804 -5.1572144,5.68725 -7.7425994,10.24239 -9.3713837,16.51124 -1.0002986,3.84993 -1.1537491,7.35992 -0.4443395,10.16371 1.1930659,4.71534 3.7438211,7.43861 8.9074211,9.50985 2.3098665,0.92655 3.2852338,1.18849 6.4776058,1.73959 0.363802,0.0628 2.566458,0.0753 4.894792,0.0277 3.656253,-0.0747 4.648851,-0.19362 7.281483,-0.8722 z m -95.242305,0.33284 c 0.429336,-0.22202 0.780611,-0.49602 0.780611,-0.6089 0,-0.11288 -0.511827,-0.69304 -1.137394,-1.28924 -2.416259,-2.30284 -3.873516,-7.13066 -3.518003,-11.65496 0.08812,-1.12145 0.04794,-1.91823 -0.09674,-1.91823 -0.625892,0 -3.36982,2.66106 -3.979112,3.85894 -0.569621,1.11988 -0.660689,1.64942 -0.655916,3.81398 0.0045,2.05992 0.117687,2.76383 0.626943,3.90039 1.447586,3.23074 5.47011,5.19573 7.979611,3.89802 z m 69.4756165,-0.93279 0.73153552,-0.27813 -1.30962372,-1.26825 c -0.7202931,-0.69754 -1.7141432,-1.9466 -2.2085559,-2.7757 -0.9621469,-1.61346 -1.8737534,-4.87245 -1.8771284,-6.71073 -0.00171,-0.92975 -0.089588,-1.12448 -0.5074723,-1.12448 -1.228417,0 -5.2428687,3.99431 -5.9957287,5.96565 -0.432268,1.13187 -0.430848,1.24141 0.02991,2.30767 0.849704,1.96632 1.701095,2.66056 4.4732824,3.64758 1.5238823,0.54258 5.4885348,0.68321 6.6637781,0.23639 z M -100.6194,170.40168 c -0.64013,-0.29043 -1.0995,-0.59243 -1.02083,-0.6711 0.0787,-0.0787 1.46873,0.10715 3.089008,0.41293 4.552613,0.85917 4.559932,0.21507 0.02174,-1.91353 -5.621768,-2.63683 -9.039878,-3.38632 -11.243868,-2.46543 -1.78225,0.74467 -1.46087,2.83447 0.62376,4.05615 1.27967,0.74994 3.03289,0.99841 7.5774,1.07388 l 2.116666,0.0352 z m 38.1486,-0.67753 c 1.852639,-0.65365 1.901545,-0.80888 0.688616,-2.18573 -1.61461,-1.83282 -3.087201,-4.52861 -3.584938,-6.56275 -0.637988,-2.60731 -0.621403,-8.64066 0.0299,-10.87746 0.265982,-0.91347 0.405977,-1.73848 0.3111,-1.83335 -0.608119,-0.60812 -5.488141,3.22029 -6.695883,5.25296 -1.432709,2.4113 -1.765239,3.85764 -1.605683,6.9839 0.119142,2.33442 0.261904,3.00942 0.945402,4.47003 1.344771,2.8737 3.146109,4.69526 5.134531,5.19216 1.077452,0.26925 3.364033,0.0588 4.776955,-0.43976 z m 47.876719,-0.31514 c -0.0384,-0.18795 -0.144283,-1.39088 -0.235303,-2.67318 l -0.165492,-2.33146 -2.476601,0.12954 c -1.785027,0.0934 -3.136677,-0.004 -4.8404,-0.35032 -2.668383,-0.5417 -3.192601,-0.38423 -3.192601,0.95903 0,1.23868 1.539575,2.32584 5.159375,3.64325 2.876645,1.04694 5.904626,1.37503 5.751022,0.62314 z m -25.647779,-1.81142 c 1.398203,-0.71556 3.088473,-2.01015 2.939424,-2.25131 -0.07674,-0.12416 -0.757574,-0.22823 -1.51297,-0.23127 -0.755396,-0.003 -2.147354,-0.17409 -3.093239,-0.38013 -1.711916,-0.3729 -1.722519,-0.37159 -2.315105,0.28485 -0.697889,0.7731 -0.741134,1.04656 -0.198437,1.25481 0.225142,0.0864 0.396875,0.006 0.396875,-0.18571 0,-0.1859 0.16784,-0.56753 0.372978,-0.84808 0.366002,-0.50053 0.383322,-0.50071 0.926042,-0.01 0.304185,0.27529 0.554689,0.74996 0.556676,1.05482 0.0064,0.983 0.31287,1.74493 0.701844,1.74493 0.208535,0 0.760195,-0.195 1.225912,-0.43335 z m -53.52512,-0.26212 c 0,-0.59962 -4.041044,-4.56544 -5.906929,-5.79697 -1.235161,-0.81524 -1.847561,-1.03945 -3.083141,-1.12883 -1.42313,-0.10294 -1.57616,-0.0591 -1.98781,0.56912 -0.47772,0.7291 -0.36618,2.04 0.21312,2.50481 0.56982,0.4572 7.641248,4.05488 7.752131,3.944 0.05974,-0.0597 -0.379188,-0.66281 -0.975402,-1.34014 -0.596213,-0.67733 -0.925078,-1.22719 -0.730809,-1.22191 0.194268,0.005 1.246184,0.6558 2.33759,1.4456 2.172653,1.57225 2.38125,1.66198 2.38125,1.02432 z m 42.399808,-0.74043 c 2.572284,-0.8987 4.532695,-2.13059 4.817225,-3.02706 0.107299,-0.33807 -0.400684,-1.03953 -1.78507,-2.46493 -3.405764,-3.50669 -4.686129,-6.71563 -4.686129,-11.74471 0,-3.46062 0.269705,-5.10068 1.207017,-7.33983 1.11017,-2.65208 1.11195,-2.67071 0.234181,-2.4504 -1.282324,0.32184 -5.466545,2.52319 -6.92563,3.64363 -2.024905,1.55492 -3.067002,2.81561 -4.139639,5.00796 -2.368901,4.84178 -2.166013,10.63173 0.523776,14.94732 2.784023,4.46678 5.397057,5.29971 10.754269,3.42802 z m -39.899881,-0.39415 c 0.08245,-0.1334 -0.237947,-1.23383 -0.71199,-2.44539 -1.066058,-2.72463 -2.568773,-4.45581 -3.867776,-4.45581 -0.633151,0 -0.902429,0.14814 -1.0642,0.58545 -0.328936,0.8892 -0.105574,1.35859 1.480485,3.11125 1.114131,1.23115 1.53882,1.5437 1.801429,1.32575 0.257626,-0.21381 0.448901,-0.13486 0.764329,0.31548 0.231392,0.33036 0.420713,0.72894 0.420713,0.88574 0,0.32515 0.537365,0.92008 0.831051,0.92008 0.107829,0 0.26351,-0.10915 0.345959,-0.24255 z m 63.915121,-2.14777 c 0.576644,-1.13032 0.513817,-1.58213 -0.218682,-1.57262 -0.67796,0.009 -2.696364,0.98798 -2.696364,1.30806 0,0.31987 1.55133,1.32948 2.045143,1.33098 0.178944,5.4e-4 0.5704,-0.47935 0.869903,-1.06642 z m -6.80402,-2.2616 c 2.329148,-0.56324 5.323392,-1.89473 7.00803,-3.11636 0.831134,-0.6027 1.987402,-1.42134 2.569485,-1.8192 1.476191,-1.009 7.974055,-7.24585 7.771349,-7.45919 -0.09138,-0.0962 -0.984351,0.14002 -1.984375,0.52488 -1.000023,0.38487 -2.532599,0.97192 -3.405724,1.30456 -2.320144,0.88393 -4.468869,1.28031 -7.011458,1.29342 -2.713702,0.014 -4.704075,-0.53322 -6.613699,-1.8183 -1.552068,-1.04446 -1.768302,-1.08879 -2.570478,-0.52692 -1.242439,0.87023 -0.911909,-0.97043 0.352918,-1.96534 0.509805,-0.40101 1.01976,-0.5527 1.673405,-0.49777 0.848922,0.0713 0.93289,0.14876 0.86537,0.79779 -0.06459,0.62083 0.09766,0.8059 1.190625,1.35813 3.794744,1.91732 8.274076,1.54297 14.229984,-1.18924 1.600729,-0.73432 4.517761,-1.98838 6.482292,-2.7868 4.3005688,-1.74783 6.5523783,-2.91421 6.9076145,-3.57797 0.2279318,-0.4259 0.1808961,-0.4753 -0.345307,-0.36266 -3.0690195,0.65694 -5.5363585,0.93777 -6.1555325,0.70061 -0.493674,-0.18909 -0.487154,-0.21842 0.132291,-0.59513 3.1402499,-1.90969 4.6102195,-3.001 6.2570991,-4.64529 2.0352713,-2.03208 2.9036794,-3.15981 2.637881,-3.42561 -0.089449,-0.0894 -0.8701287,0.15487 -1.7348443,0.54293 -1.9708461,0.88446 -5.3223458,1.75288 -6.7649138,1.75288 -1.373144,0 -1.788728,0.33666 -2.369512,1.91952 -0.92003,2.50743 -3.614421,5.48485 -4.966168,5.48783 -0.734234,0.002 -1.866837,-1.14988 -1.866837,-1.89797 0,-0.39735 0.459076,-1.25954 1.107287,-2.07959 1.955202,-2.47351 2.307384,-3.69437 1.06572,-3.69437 -0.305568,0 -2.43357,-0.41075 -4.728893,-0.91277 -9.042232,-1.97769 -13.914515,-1.7694 -19.236835,0.82238 -3.696445,1.80003 -6.534568,5.68121 -7.254236,9.92029 -0.770548,4.53877 1.082094,10.05289 4.519438,13.45144 2.75249,2.72143 7.389383,3.66632 12.238024,2.49382 z m 2.698349,-16.15761 c -0.582084,-0.21962 -2.279096,-0.46648 -3.77114,-0.54856 -2.363882,-0.13004 -2.670718,-0.19995 -2.385587,-0.54351 0.210405,-0.25352 0.328767,-1.32616 0.331556,-3.00466 l 0.0043,-2.61039 -1.521354,-1e-5 c -0.836745,0 -1.521354,-0.11301 -1.521354,-0.25112 0,-0.54233 1.891676,-1.67043 3.013022,-1.79682 1.503221,-0.16944 2.689285,0.24047 4.724505,1.6328 2.700267,1.8473 3.848986,2.34373 5.075229,2.19331 0.592828,-0.0727 1.286228,-0.21764 1.54089,-0.32204 0.346736,-0.14216 0.463021,-0.0614 0.463021,0.32152 0,0.63322 -0.955763,1.55868 -1.995758,1.93247 -0.884939,0.31807 -2.308979,2.41052 -2.067957,3.03862 0.19415,0.50594 -0.477433,0.49116 -1.88941,-0.0416 z m -2.7273,-2.57379 c -0.04481,-0.4188 -0.01256,-0.94102 0.07166,-1.16049 0.132511,-0.34532 0.222306,-0.33644 0.666924,0.0659 0.604272,0.54686 1.404922,0.3428 1.279118,-0.326 -0.04799,-0.25511 -0.354441,-0.58135 -0.681013,-0.725 -0.326571,-0.14365 -0.593767,-0.36865 -0.593767,-0.5 0,-0.35499 -0.858436,-0.94057 -1.392951,-0.9502 -0.555221,-0.01 -1.515076,1.45833 -1.516476,2.31983 -5.44e-4,0.33465 0.184412,0.96698 0.411013,1.40517 0.327172,0.63268 0.558701,0.77979 1.12448,0.71447 0.612519,-0.0707 0.701047,-0.18909 0.63101,-0.84371 z m 15.565454,-1.45272 c 1.440382,-1.18801 3.125146,-4.74586 3.433646,-7.2511 0.967189,-7.85424 -5.160487,-15.47087 -14.419717,-17.92353 -2.734362,-0.7243 -7.74384,-0.97524 -10.735674,-0.53777 -5.758209,0.84196 -10.695466,2.98597 -20.617452,8.95315 -11.116139,6.68536 -15.66589,8.35148 -22.754167,8.33255 -3.528996,-0.009 -6.273511,-0.45865 -9.260417,-1.51578 -2.827081,-1.00056 -2.870984,-0.99175 -0.605832,0.12159 3.603554,1.77119 5.833325,2.22689 10.924582,2.23267 3.998509,0.005 4.58812,-0.0579 7.011459,-0.74258 4.832602,-1.36537 9.232272,-3.50534 16.933334,-8.23628 8.520609,-5.2344 14.238298,-7.38508 20.505208,-7.71292 7.030756,-0.3678 13.222594,1.89547 17.398591,6.35963 2.760727,2.95122 3.951315,6.15488 3.693797,9.93933 -0.1932,2.83922 -0.794397,4.49989 -2.31498,6.39457 -1.34666,1.67797 -1.44405,1.86351 -1.138518,2.16904 0.361321,0.36132 1.052651,0.15438 1.94614,-0.58257 z m 7.611784,-7.64156 c 0.292886,-0.25466 0.720666,-1.05833 0.950624,-1.78594 2.6366829,-8.34268 -1.287925,-15.3536 -10.624081,-18.97884 -6.592983,-2.56006 -14.438797,-2.49822 -21.427838,0.1689 -2.674389,1.02058 -6.027354,2.65524 -6.277906,3.06065 -0.23856,0.38599 0.011,0.3441 2.294121,-0.3851 3.579734,-1.14332 6.721972,-1.53922 11.031601,-1.38991 4.487219,0.15547 6.952216,0.7165 10.137985,2.30741 2.76202,1.3793 4.266124,2.45187 6.156553,4.39018 2.998116,3.07406 4.512865,6.4519 4.817437,10.74273 l 0.165596,2.33294 h 1.121694 c 0.689027,0 1.327102,-0.1786 1.654214,-0.46302 z m 3.4669437,-1.36115 c 0.6899922,-0.69 1.0872254,-2.77104 1.0810231,-5.66333 -0.00431,-2.01125 -0.1410903,-2.81967 -0.7869286,-4.65113 -1.0170994,-2.88427 -1.6256496,-3.87165 -3.7007732,-6.00455 -1.96964,-2.02448 -3.405775,-3.0002 -6.75187,-4.58725 -4.368441,-2.07195 -10.323069,-3.13248 -15.065276,-2.68315 -3.544373,0.33583 -7.219104,1.17011 -9.529148,2.16341 -1.02515,0.44081 -2.81641,1.20932 -3.980577,1.70781 -2.222054,0.95146 -4.383108,2.43034 -3.042708,2.08223 0.363802,-0.0945 1.67349,-0.71416 2.910417,-1.37705 2.802154,-1.50174 8.371957,-3.14471 12.014199,-3.54393 7.082215,-0.77627 15.059364,1.15496 20.003402,4.84272 2.387308,1.7807 3.004002,2.44605 4.4990132,4.85402 1.9455389,3.13361 2.4862771,6.56063 1.711653,10.84791 -0.2103413,1.16417 -0.3847812,2.20597 -0.3876442,2.31511 -0.00948,0.36132 0.5164076,0.20599 1.0252177,-0.30282 z m -58.1804247,-8.90486 c 2.038995,-0.87758 1.327154,-0.79914 -1.334884,0.1471 -1.514914,0.53849 -1.895372,0.74416 -1.178658,0.63718 0.582084,-0.0869 1.713177,-0.43981 2.513542,-0.78428 z m 6.803143,-3.05718 c 1.20598,-0.59741 2.192691,-1.19392 2.192691,-1.32557 0,-0.13165 -1.071563,0.29881 -2.38125,0.95657 -2.166688,1.08818 -2.719728,1.45521 -2.192692,1.45521 0.103708,0 1.17527,-0.48879 2.381251,-1.08621 z m 5.279907,-2.97009 c 1.043126,-0.55747 2.105755,-1.24471 2.361399,-1.5272 0.457716,-0.50577 0.449625,-0.50726 -0.53043,-0.0978 -0.916673,0.38301 -4.653602,2.73861 -4.653602,2.93343 0,0.1413 0.828705,-0.24286 2.822633,-1.30847 z"
         id="path15" /></g></g></svg>
