<?xml version="1.0" encoding="UTF-8" standalone="no"?>
<!-- Created with Inkscape (http://www.inkscape.org/) -->

<svg
   width="423.26492mm"
   height="86.762787mm"
   viewBox="0 0 423.26492 86.762787"
   version="1.1"
   id="svg1"
   xml:space="preserve"
   xmlns="http://www.w3.org/2000/svg"
   xmlns:svg="http://www.w3.org/2000/svg"><defs
     id="defs1" /><g
     id="layer1"
     transform="translate(114.38693,-185.22589)"><g
       id="g15"
       transform="translate(0.47838431,77.737451)"><path
         style="fill:#d71a23"
         d="m -52.934729,190.715 c -1.742572,-1.85639 -3.885693,-6.03182 -4.101164,-7.99028 -0.183976,-1.67219 1.672035,-0.74837 2.046319,1.01854 0.09602,0.45328 0.830716,2.34764 1.632663,4.20968 0.801948,1.86205 1.405785,3.43784 1.341862,3.50177 -0.06392,0.0639 -0.47778,-0.26895 -0.91968,-0.73971 z m 11.779489,-0.78979 c -1.685893,-1.63271 -3.505651,-4.33282 -4.716752,-6.9986 -0.963909,-2.12168 -0.920084,-2.80551 0.171524,-2.67641 0.621235,0.0735 0.957476,0.56184 2.713484,3.94112 1.796862,3.4579 2.348739,4.43886 3.672373,6.52764 0.713178,1.12545 -0.318167,0.68069 -1.840629,-0.79375 z m -25.225313,-1.91822 c 0.249073,-3.17878 0.892279,-7.51617 1.199813,-8.0908 0.36908,-0.68963 0.734452,-0.63854 1.095167,0.15314 0.392906,0.86234 -0.057,3.58646 -1.158015,7.01161 -1.07049,3.3302 -1.342716,3.55192 -1.136965,0.92605 z m 38.070802,-3.57188 c 0,-2.11005 0.04109,-2.97326 0.09131,-1.91823 0.05022,1.05503 0.05022,2.78143 0,3.83646 -0.05022,1.05503 -0.09131,0.19182 -0.09131,-1.91823 z m -47.720059,1.25017 c -0.0055,-0.11278 0.408807,-1.03686 0.920788,-2.05352 0.511981,-1.01665 1.175379,-2.50196 1.474219,-3.30068 0.53496,-1.42981 1.153904,-1.87381 1.468671,-1.05354 0.270971,0.70614 -1.28605,3.86192 -2.599983,5.26967 -0.689485,0.73871 -1.258147,1.25084 -1.263695,1.13807 z m 49.605902,-4.22584 c -0.355638,-4.48051 -0.310033,-6.05603 0.184543,-6.37542 0.834005,-0.53858 1.080286,0.14464 1.101377,3.0554 0.01838,2.53722 -0.40918,5.06899 -0.908125,5.37735 -0.112456,0.0695 -0.282463,-0.8563 -0.377795,-2.05733 z m -7.934891,-2.31352 c 0.187314,-2.46737 0.241982,-2.64831 0.800144,-2.64831 0.478011,0 0.482595,0.78648 0.01482,2.54318 -0.679864,2.5532 -1.003991,2.59502 -0.814968,0.10513 z M -56.13,180.01038 c -0.938198,-0.11643 -1.112083,-0.59285 -0.424621,-1.16339 0.239401,-0.19868 1.798325,-1.99936 3.464275,-4.0015 1.66595,-2.00214 3.136952,-3.57354 3.268892,-3.49199 0.453012,0.27997 0.238297,1.13506 -0.755333,3.00805 -1.381042,2.60326 -3.928111,5.90363 -4.474527,5.79788 -0.120335,-0.0233 -0.605743,-0.0904 -1.078686,-0.14905 z m 1.782429,-2.65406 0.878238,-1.25558 -1.483478,1.4341 c -0.815912,0.78875 -1.417625,1.54065 -1.337139,1.67088 0.197053,0.31884 0.881796,-0.33313 1.942379,-1.8494 z m -55.768959,1.15286 c -1.62169,-0.40929 -2.70045,-1.29657 -2.70045,-2.22111 0,-0.96829 1.72258,-2.52083 3.57187,-3.21927 1.51427,-0.57191 1.8415,-0.5934 7.09349,-0.46568 3.028298,0.0737 5.584694,0.2126 5.680883,0.30879 0.27305,0.27305 -0.428613,0.61677 -2.720201,1.33255 -3.938992,1.23034 -3.473102,1.51578 1.299863,0.79638 3.067131,-0.46229 3.065762,-0.46221 3.065762,-0.17245 0,0.39207 -4.009236,2.09543 -6.879167,2.92267 -3.31117,0.95442 -6.42317,1.22009 -8.41205,0.71812 z m 2.59122,-4.54457 c 3.61686,-0.77121 3.76099,-0.85054 1.5875,-0.87376 -1.43102,-0.0153 -2.29795,0.12113 -3.10886,0.48922 -1.96997,0.8942 -1.46615,1.02155 1.52136,0.38454 z m 44.367479,4.22517 c -0.409187,-0.22182 -0.697101,-0.54448 -0.639809,-0.71701 0.05729,-0.17254 0.987394,-0.83453 2.066893,-1.4711 1.0795,-0.63657 2.78678,-1.79743 3.793957,-2.57969 1.93429,-1.50233 2.269811,-1.65629 2.269811,-1.0415 0,0.78798 -4.27428,5.00874 -6.001877,5.92671 -0.693098,0.36829 -0.575983,0.37752 -1.488975,-0.11741 z m 15.958994,-0.28528 c 8.12e-4,-0.40999 0.112403,-1.16215 0.247981,-1.67147 0.135578,-0.50933 0.434492,-2.41029 0.664253,-4.22438 0.229761,-1.81408 0.516122,-3.3967 0.636358,-3.51694 0.120235,-0.12024 0.386204,-0.0163 0.591042,0.23104 0.282975,0.34165 0.368976,1.3453 0.358043,4.17841 -0.01668,4.32216 -0.156698,5.08343 -0.978413,5.3196 -0.327084,0.094 -0.803057,0.22903 -1.057718,0.30005 -0.362173,0.101 -0.4627,-0.0332 -0.461546,-0.61631 z M 126.2588,177.67517 c -0.32173,-0.32172 -0.42064,-0.9656 -0.41751,-2.71781 0.002,-1.26292 -0.13388,-10.82233 -0.30253,-21.24314 -0.16865,-10.42082 -0.23105,-19.24808 -0.13868,-19.61613 0.20646,-0.82258 0.41293,-0.90438 3.8767,-1.53592 4.88261,-0.89023 5.26532,-0.78578 6.35502,1.7344 0.69694,1.61186 4.81941,11.89196 6.33957,15.80885 0.60712,1.56435 1.22963,2.84427 1.38333,2.84427 0.19477,0 0.22055,-3.11059 0.0851,-10.26381 -0.17393,-9.18313 -0.15039,-10.30032 0.22352,-10.61065 0.31816,-0.26404 1.45929,-0.32453 4.78036,-0.25338 3.63518,0.0779 4.43593,0.167 4.80336,0.53454 0.40802,0.40815 0.41648,1.26735 0.11328,11.50938 -0.99574,33.6359 -0.89358,31.32372 -1.40026,31.69392 -0.45118,0.32964 -4.60953,1.27597 -7.08294,1.61188 -0.94529,0.12838 -1.32074,0.06 -1.76481,-0.32159 -0.35715,-0.30687 -1.79263,-3.69413 -3.91309,-9.23362 -3.35902,-8.77509 -3.70437,-9.59825 -3.92999,-9.36734 -0.067,0.0685 -0.0339,3.99416 0.0734,8.72359 0.13664,6.01912 0.10883,8.79619 -0.0927,9.25636 -0.26003,0.59382 -0.55638,0.69879 -3.06438,1.08535 -5.22901,0.80596 -5.46716,0.82046 -5.92677,0.36085 z m 123.46593,0.0792 c -0.2567,-0.31815 -0.79644,-21.9029 -0.93004,-37.19284 -0.0534,-6.11712 -0.0182,-6.72929 0.40493,-7.04095 0.62229,-0.45832 6.46794,-1.53134 7.76435,-1.42521 0.96311,0.0788 1.08006,0.18245 1.7378,1.53973 0.38786,0.80036 2.33494,5.53252 4.32684,10.51589 1.9919,4.98338 3.72489,8.99688 3.85108,8.91889 0.12778,-0.079 0.15592,-4.67973 0.0635,-10.38361 -0.15103,-9.32197 -0.12671,-10.27429 0.2708,-10.60363 0.68161,-0.5647 9.001,-0.31854 9.6037,0.28416 0.3993,0.3993 0.41006,1.23892 0.13038,10.17831 -0.48144,15.38859 -0.82842,26.97209 -0.89682,29.93929 -0.0519,2.25023 -0.14486,2.79345 -0.52581,3.0717 -0.40913,0.29885 -4.19485,1.13735 -7.22826,1.601 -1.9116,0.29219 -1.84555,0.4157 -6.86019,-12.83033 -1.12936,-2.98318 -2.22925,-5.60256 -2.44421,-5.82084 -0.34478,-0.35011 -0.36897,0.68013 -0.20524,8.74403 0.15247,7.50919 0.12205,9.19177 -0.1704,9.42588 -0.2814,0.22527 -7.31672,1.40926 -8.37385,1.40926 -0.13845,0 -0.37181,-0.14883 -0.51857,-0.33073 z m 51.06156,-0.0959 c -0.14445,-0.27468 -0.35091,-1.03519 -0.4588,-1.69004 -0.10788,-0.65484 -0.30173,-1.47002 -0.43077,-1.8115 -0.22983,-0.60822 -0.26671,-0.59116 -1.8098,0.83746 -2.35923,2.18424 -3.82983,2.68198 -7.94347,2.68855 -3.09988,0.005 -3.40285,-0.0416 -4.83085,-0.74285 -2.55518,-1.25472 -3.55131,-3.10405 -4.42133,-8.20822 -1.8612,-10.91919 -0.99595,-28.34157 1.6405,-33.0325 0.99747,-1.77476 3.01278,-2.74905 7.91766,-3.82774 1.83052,-0.40257 3.2695,-0.47887 8.42527,-0.44672 4.1354,0.0258 6.74936,0.1587 7.8052,0.39688 l 1.5875,0.3581 -0.0138,1.5875 c -0.0236,2.7285 -0.42296,7.89092 -0.69356,8.96638 l -0.25888,1.02888 -1.89815,-0.18083 c -5.8296,-0.55538 -7.37368,-0.62125 -9.47346,-0.40411 -2.99741,0.30995 -3.60855,0.56567 -4.08665,1.70994 -0.67496,1.61539 -1.01678,8.82827 -0.69248,14.61229 0.17155,3.0597 0.42331,5.37849 0.63161,5.81717 0.57353,1.20791 1.89059,1.71209 4.08523,1.56386 2.61687,-0.17675 3.45785,-0.65542 3.67102,-2.08946 0.0921,-0.61941 0.12925,-1.72151 0.0826,-2.44912 l -0.0848,-1.32291 h -1.98437 c -1.09141,0 -2.1332,-0.0963 -2.3151,-0.21406 -0.5052,-0.32697 -0.46482,-7.94844 0.0448,-8.45807 0.29295,-0.29294 1.69946,-0.40788 6.39486,-0.52255 3.31062,-0.0809 6.17772,-0.0862 6.37133,-0.0119 0.28617,0.10982 0.35202,2.5002 0.35202,12.77962 v 12.64453 l -1.67103,0.29099 c -0.91906,0.16005 -2.57298,0.36724 -3.67538,0.46043 -1.79428,0.15167 -2.03189,0.11709 -2.267,-0.32998 z m -372.151881,-0.0143 c -0.446679,-0.44668 -0.06004,-0.86489 1.335534,-1.44456 0.831558,-0.34541 2.634885,-1.19601 4.007395,-1.89024 3.407785,-1.72367 3.602792,-1.33904 0.522719,1.03103 -2.419968,1.86212 -5.211072,2.95834 -5.865648,2.30377 z m 173.053971,-0.19772 c -0.41172,-0.41172 -0.43303,-1.7487 -0.2821,-17.69657 0.11475,-12.12405 0.0703,-18.60652 -0.14969,-21.81142 -0.20919,-3.04823 -0.22574,-4.7232 -0.0499,-5.05175 0.30572,-0.57125 2.36238,-0.72221 13.81712,-1.01416 6.52458,-0.16629 6.79177,-0.15348 7.05493,0.33824 0.30308,0.56632 -0.0776,8.56257 -0.45197,9.49414 -0.20215,0.50299 -0.45995,0.52917 -5.21102,0.52917 h -4.99835 l -0.0731,4.05654 -0.0732,4.05654 4.44423,-0.18804 c 3.86476,-0.16352 4.48909,-0.13397 4.78837,0.22663 0.41656,0.50193 0.33544,8.46728 -0.0905,8.88205 -0.14552,0.14171 -2.22911,0.35569 -4.6302,0.47551 l -4.36563,0.21785 -0.0739,3.68318 c -0.0406,2.02575 0.0355,3.79259 0.16924,3.92632 0.20857,0.20856 5.48153,-0.0434 9.38572,-0.4484 1.43909,-0.1493 2.06125,0.51631 1.89629,2.02872 -0.0677,0.62091 -0.19674,2.53137 -0.28671,4.24547 -0.10602,2.01983 -0.28545,3.2384 -0.5099,3.46285 -0.25971,0.25971 -2.18828,0.39041 -7.71248,0.52269 -4.05139,0.097 -8.44296,0.2514 -9.75903,0.34309 -2.03644,0.14189 -2.45921,0.10038 -2.83824,-0.27865 z m -50.092233,-0.14113 c -5.966013,-0.69046 -7.565677,-2.44096 -8.309446,-9.09299 -0.532059,-4.75858 -0.527051,-4.73601 -1.011042,-4.55635 -0.249645,0.0927 -0.126081,-0.13373 0.282543,-0.5177 1.86385,-1.75139 4.533048,-6.21177 5.653836,-9.44788 0.803971,-2.32134 1.117269,-5.65311 0.639944,-6.80547 -0.601345,-1.45178 -1.196699,-1.32667 -3.281498,0.68959 -1.037531,1.00342 -2.174515,2.05778 -2.526632,2.34303 l -0.640214,0.51863 0.614111,-0.84676 c 0.568646,-0.78406 0.601231,-1.01431 0.440141,-3.11004 -0.161157,-2.09659 -0.132701,-2.2973 0.386357,-2.72512 0.30818,-0.254 0.721736,-0.61526 0.919015,-0.80279 0.518069,-0.49248 0.186674,-1.9274 -0.59953,-2.59593 -0.626788,-0.53298 -0.641883,-0.61818 -0.370049,-2.08867 0.37787,-2.04409 1.40126,-4.21806 2.246274,-4.77174 1.870827,-1.22581 8.376638,-2.13471 13.610018,-1.9014 7.846908,0.34983 8.952795,1.70852 10.27575,12.62474 1.006908,8.3084 0.261703,23.47794 -1.407403,28.64936 -0.463038,1.43464 -1.413787,2.68314 -2.452134,3.22009 -2.00186,1.03521 -10.133186,1.71931 -14.470041,1.2174 z m 7.489509,-11.01861 c 1.083357,-0.68712 1.23985,-2.06388 1.245305,-10.95574 0.0056,-9.09501 -0.223087,-11.44377 -1.191352,-12.23698 -0.825854,-0.67654 -4.438437,-0.65967 -5.283567,0.0247 -0.567383,0.45944 -0.61623,0.76214 -0.843251,5.22552 -0.270399,5.31625 -0.06488,15.36142 0.344622,16.84454 0.147467,0.53408 0.402147,1.05388 0.565958,1.15512 1.083226,0.66947 4.06877,0.63643 5.162285,-0.0571 z m 14.593063,11.07083 c -0.01956,-0.10914 -0.05255,-8.89 -0.07333,-19.51302 -0.0266,-13.60006 -0.136401,-20.16999 -0.37112,-22.20575 -0.283908,-2.46241 -0.277597,-2.94692 0.04255,-3.26707 0.496016,-0.49601 4.587291,-0.82693 10.406332,-0.84169 8.744995,-0.0222 11.611377,0.81494 13.130202,3.83472 1.115673,2.21822 1.89331,9.02611 1.691325,14.80687 -0.241839,6.92139 -1.241865,9.66199 -4.17689,11.44686 -2.100446,1.27735 -3.971747,1.89417 -7.0628,2.32808 -1.521506,0.21358 -2.882433,0.46006 -3.024283,0.54773 -0.159515,0.0986 -0.223092,2.41353 -0.166648,6.06796 0.05739,3.71584 -0.0069,6.00286 -0.173323,6.16265 -0.529052,0.50807 -10.137781,1.10277 -10.222014,0.63266 z M 87.247584,153.9974 c 1.431494,-0.38546 1.845933,-1.16277 2.003498,-3.75771 0.161051,-2.65235 -0.280017,-7.33378 -0.764398,-8.1132 -0.435536,-0.70083 -1.961538,-1.13685 -3.607626,-1.0308 l -1.242909,0.0801 -0.07108,6.34476 c -0.03909,3.48963 -0.007,6.51182 0.07137,6.71598 0.153089,0.39894 1.596553,0.30337 3.611145,-0.23911 z m 79.070856,23.40279 c -5.94435,-0.70474 -7.77626,-2.12952 -8.88836,-6.91296 -0.61228,-2.63356 -1.04424,-36.76613 -0.47341,-37.40806 0.66673,-0.74978 9.01941,-1.64504 9.74325,-1.04431 0.34247,0.28422 0.39523,2.15912 0.38957,13.84267 -0.008,16.33225 0.11598,18.8312 0.97628,19.69149 0.8173,0.8173 3.41928,0.87852 4.37492,0.10293 l 0.62463,-0.50693 v -15.88346 c 0,-10.24458 0.0939,-15.97293 0.26458,-16.13547 0.28858,-0.27487 7.90029,-1.62762 9.15835,-1.62762 0.60067,0 0.8422,0.16485 1.06606,0.72761 0.36134,0.90837 0.0915,31.51906 -0.31361,35.58049 -0.6267,6.28246 -1.91405,8.14834 -6.26396,9.07901 -1.7712,0.37894 -8.85941,0.70789 -10.6583,0.49461 z m 51.72605,-0.24374 c -1.74625,-0.18231 -3.19203,-0.34559 -3.21284,-0.36285 -0.48305,-0.40059 -0.40824,-0.78782 3.83944,-19.87513 3.59388,-16.14936 3.54276,-15.86277 3.37413,-18.9177 -0.19512,-3.53491 0.0362,-4.91297 0.89406,-5.32578 0.67608,-0.32535 10.79255,-1.43634 12.98972,-1.42653 0.83901,0.004 1.35218,0.15617 1.65597,0.49185 0.2766,0.30565 0.8297,2.44999 1.48824,5.76987 1.64967,8.31643 5.41673,26.13984 7.0099,33.16663 1.039,4.58254 1.09137,5.09565 0.56466,5.53277 -0.45644,0.37881 -8.79475,1.22995 -9.73573,0.99378 -0.85538,-0.21469 -0.88267,-0.28969 -1.53568,-4.22099 -0.29523,-1.77738 -0.60131,-3.5157 -0.68018,-3.86292 l -0.14339,-0.63132 -3.83727,0.13028 c -2.11051,0.0716 -3.95863,0.25161 -4.10694,0.39993 -0.14831,0.14831 -0.51379,1.98112 -0.81218,4.07291 -0.29839,2.0918 -0.66117,3.95209 -0.80618,4.13399 -0.32504,0.40774 -2.59681,0.38524 -6.94573,-0.0688 z m 15.13318,-18.29354 c 0.15149,-0.39477 -2.19627,-14.62508 -2.4561,-14.88697 -0.0602,-0.0606 -0.19011,-0.0295 -0.28879,0.0692 -0.20675,0.20675 -2.44419,13.43267 -2.45754,14.52701 l -0.009,0.7276 h 2.52185 c 2.10003,0 2.54988,-0.0731 2.68946,-0.43681 z m -45.38319,17.95536 c -0.28768,-0.20098 -0.36028,-4.29863 -0.39687,-22.4021 -0.0439,-21.69753 -0.0341,-22.16184 0.46963,-22.43145 0.76271,-0.40817 14.54069,-0.061 17.17502,0.43277 3.94734,0.73989 6.1985,2.40632 7.33528,5.42999 2.36342,6.28637 2.83398,19.42168 1.01758,28.40517 -0.71074,3.51518 -1.3868,5.20174 -2.66901,6.65841 -1.86553,2.11936 -4.46604,3.08898 -9.58019,3.57206 -4.28385,0.40464 -12.94088,0.62195 -13.35144,0.33515 z m 14.07274,-11.35379 c 1.10678,-0.34908 1.35364,-0.55998 1.77783,-1.51894 1.43533,-3.2448 1.3492,-16.82282 -0.1248,-19.67321 -0.71699,-1.3865 -1.54899,-1.75627 -3.97252,-1.7655 l -2.14074,-0.008 -0.0695,11.50938 c -0.0609,10.08774 -0.0194,11.54613 0.33604,11.807 0.49551,0.36365 2.44624,0.20057 4.19372,-0.35058 z m -291.003992,9.54443 c -2.147207,-0.44897 -2.946398,-0.94886 -3.633401,-2.27268 -0.442892,-0.85343 -0.45596,-1.04587 -0.124749,-1.83709 0.484217,-1.15673 2.282586,-2.7597 3.985808,-3.55275 2.240065,-1.04301 2.22596,-1.05645 2.328621,2.21871 0.07758,2.47485 0.183756,3.03838 0.793755,4.21264 0.38731,0.74558 0.635357,1.42444 0.551215,1.50858 -0.253119,0.25312 -1.936398,0.13343 -3.901249,-0.27741 z m 1.432148,-7.02651 c 0.466806,-0.17233 0.559657,-0.31441 0.345449,-0.52862 -0.340273,-0.34027 -1.683577,0.11799 -2.211904,0.75459 -0.27174,0.32742 -0.203764,0.35696 0.454249,0.19737 0.425594,-0.10322 1.061087,-0.29372 1.412206,-0.42334 z m 5.201479,6.09557 c -2.354754,-1.60302 -3.149229,-3.52718 -2.554195,-6.18607 0.280858,-1.25501 0.583258,-1.76637 1.767756,-2.9893 0.849703,-0.87726 1.518883,-1.37342 1.650827,-1.22398 0.122039,0.13822 0.35625,1.15917 0.520469,2.26877 0.475492,3.21283 1.14704,4.66675 3.016167,6.5301 1.981421,1.9753 1.880612,2.20584 -1.036905,2.37128 -1.988481,0.11275 -2.105663,0.0859 -3.364119,-0.7708 z m -0.177128,-8.39534 c 0.526788,-0.43688 0.821968,-0.87326 0.711548,-1.05193 -0.263217,-0.42589 -1.037073,0.0261 -1.743705,1.01849 -0.733214,1.0297 -0.190331,1.04729 1.032157,0.0334 z m 45.905877,7.67594 c -1.752267,-1.14667 -3.20972,-2.57782 -2.920115,-2.86743 0.10515,-0.10514 0.440204,-0.0357 0.744565,0.15442 0.30436,0.19007 0.924024,0.55434 1.377029,0.80948 1.881872,1.0599 3.866355,2.43007 3.866355,2.66948 0,0.5934 -1.601642,0.19351 -3.067834,-0.76595 z m 6.639709,-1.24344 c -2.424639,-1.36457 -5.422042,-4.19191 -4.947328,-4.66662 0.210218,-0.21022 0.543569,-0.0673 1.212194,0.51978 0.507232,0.44536 1.197954,0.89289 1.534937,0.99451 0.336983,0.10162 1.773557,0.85362 3.192385,1.67111 2.529295,1.45731 3.127648,2.15726 2.161173,2.52813 -0.705549,0.27075 -0.965339,0.1845 -3.153361,-1.04691 z m 42.201043,0.52178 c -3.192372,-0.5511 -4.1677393,-0.81304 -6.4776058,-1.73959 -5.1636,-2.07124 -7.7143552,-4.79451 -8.9074211,-9.50985 -0.7094096,-2.80379 -0.5559591,-6.31378 0.4443395,-10.16371 1.6287843,-6.26885 4.2141693,-10.82399 9.3713837,-16.51124 4.8019647,-5.29549 10.8404067,-9.09916 17.0786787,-10.75804 2.457069,-0.65338 10.544393,-0.71365 12.123986,-0.0904 0.556316,0.21952 1.017124,0.5135 1.024016,0.6533 0.0069,0.1398 -0.864995,0.58179 -1.937527,0.98221 -4.890332,1.82574 -5.748372,2.22475 -7.94806,3.6961 -4.041024,2.703 -7.464103,6.68619 -9.078932,10.56451 -1.91238,4.59295 -2.517744,7.25776 -2.517813,11.08341 l -4.5e-5,2.52413 -1.081128,1.18003 c -1.701792,1.85749 -3.202316,4.75191 -2.463476,4.75191 0.08776,0 0.772368,-0.55332 1.521354,-1.2296 2.908932,-2.62656 5.981975,-3.35194 9.324017,-2.20091 2.004282,0.69029 5.831006,1.31142 8.087938,1.31278 4.979425,0.003 10.358014,-2.19275 14.383711,-5.87201 0.806715,-0.73729 1.528108,-1.27918 1.603093,-1.20419 0.23318,0.23318 -0.87256,3.18492 -1.966682,5.25 -2.419851,4.56731 -5.804859,8.51775 -9.82966,11.47162 -2.763768,2.02837 -7.122894,4.07442 -10.577892,4.96497 -2.632632,0.67858 -3.62523,0.79747 -7.281483,0.8722 -2.328334,0.0476 -4.53099,0.0351 -4.894792,-0.0277 z m 21.008973,-13.85986 c 1.916445,-0.49014 5.339515,-2.05662 5.074106,-2.32203 -0.06606,-0.0661 -0.871856,0.12262 -1.790656,0.41929 -4.356502,1.40665 -8.366044,1.54777 -13.149334,0.4628 -3.394458,-0.76994 -3.719584,-0.79467 -5.166422,-0.39296 -1.310083,0.36374 -0.824365,0.7582 0.940776,0.76402 0.675895,0.002 2.02566,0.25015 2.999478,0.55093 2.626671,0.8113 3.710128,0.97963 6.511068,1.01163 1.743803,0.0199 3.176507,-0.13447 4.580984,-0.49368 z M -1.6919778,156.2414 c 0,-0.64626 -0.1136674,-1.17501 -0.2525942,-1.17501 -0.3197833,0 -0.652103,1.7105 -0.4398048,2.26374 0.2872151,0.74847 0.692399,0.11136 0.692399,-1.08873 z m 1.84135363,-7.6573 C 2.6293144,142.31594 7.6367627,135.78086 13.201439,131.5502 c 2.391898,-1.81849 6.438135,-4.25724 8.787952,-5.29668 1.54307,-0.68257 1.514732,-0.86216 -0.06731,-0.42654 -6.474604,1.7828 -13.7472383,7.07344 -17.7500457,12.91266 -2.355039,3.43549 -4.24875101,7.70669 -5.1858633,11.69651 -0.3157318,1.34425 0.26345617,0.42205 1.16319983,-1.85208 z M -75.150104,172.0202 c -1.622799,-0.73689 -3.127803,-2.22768 -3.829182,-3.79303 -0.509256,-1.13656 -0.622402,-1.84047 -0.626943,-3.90039 -0.0048,-2.16456 0.08629,-2.6941 0.655916,-3.81398 0.609292,-1.19788 3.35322,-3.85894 3.979112,-3.85894 0.144679,0 0.184863,0.79678 0.09674,1.91823 -0.355513,4.5243 1.101744,9.35212 3.518003,11.65496 0.625567,0.5962 1.137394,1.17636 1.137394,1.28924 0,0.41703 -1.595991,1.01239 -2.69884,1.00676 -0.62569,-0.003 -1.63018,-0.22948 -2.232201,-0.50285 z M -77.2907,160.27064 c 1.485145,-1.38217 1.858377,-2.02928 1.170415,-2.02928 -0.541458,0 -2.830028,2.61515 -2.830028,3.23387 0,0.32699 0.06322,0.2811 1.659613,-1.20459 z m 69.1028644,10.68537 c -2.7721874,-0.98702 -3.6235784,-1.68126 -4.4732824,-3.64758 -0.460761,-1.06626 -0.462181,-1.1758 -0.02991,-2.30767 0.75286,-1.97134 4.7673117,-5.96565 5.9957287,-5.96565 0.4178846,0 0.5057653,0.19473 0.5074723,1.12448 0.00338,1.83828 0.9149815,5.09727 1.8771284,6.71073 0.4944127,0.8291 1.4882628,2.07816 2.2085559,2.7757 l 1.30962372,1.26825 -0.73153552,0.27813 c -1.1752433,0.44682 -5.1398958,0.30619 -6.6637781,-0.23639 z m -0.7140382,-8.72008 c 1.3788043,-1.12506 1.7696771,-1.8779 0.9749983,-1.8779 -0.5115769,0 -3.2901025,2.87276 -3.2901025,3.40169 0,0.33515 0.05942,0.33477 0.463021,-0.003 0.254661,-0.21308 1.0880988,-0.89747 1.8520832,-1.52086 z m -96.9105662,8.45973 c -1.62847,-0.12558 -2.40654,-0.32959 -3.33715,-0.87496 -2.08463,-1.22168 -2.40601,-3.31148 -0.62376,-4.05615 2.20399,-0.92089 5.6221,-0.1714 11.24387,2.46543 4.53819,2.1286 4.530871,2.7727 -0.02174,1.91353 -1.62028,-0.30578 -3.01034,-0.4916 -3.08901,-0.41293 -0.0787,0.0787 0.3807,0.38067 1.02083,0.6711 l 1.16388,0.52806 -2.11667,-0.0352 c -1.16417,-0.0193 -3.07228,-0.10885 -4.24025,-0.19892 z m 4.52066,-3.06982 c -0.97134,-0.7347 -3.45854,-1.50489 -5.1752,-1.60256 -1.94612,-0.11072 -1.90649,-0.093 2.64583,1.18663 3.28792,0.92417 3.17726,0.90598 2.52937,0.41593 z m 34.044025,2.53807 c -1.988422,-0.4969 -3.78976,-2.31846 -5.134531,-5.19216 -0.683498,-1.46061 -0.82626,-2.13561 -0.945402,-4.47003 -0.159556,-3.12626 0.172974,-4.5726 1.605683,-6.9839 1.207742,-2.03267 6.087764,-5.86108 6.695883,-5.25296 0.09488,0.0949 -0.04512,0.91988 -0.3111,1.83335 -0.651303,2.2368 -0.667888,8.27015 -0.0299,10.87746 0.497737,2.03414 1.970328,4.72993 3.584938,6.56275 0.864925,0.98182 1.011136,1.28537 0.731065,1.51781 -1.04033,0.8634 -4.616245,1.50261 -6.196636,1.10768 z m -0.764062,-18.13442 c 1.409267,-1.03101 1.988446,-1.60452 1.805309,-1.78766 -0.148305,-0.1483 -0.557466,-0.1974 -0.909248,-0.10911 -0.903166,0.22668 -3.23487,2.14241 -3.881958,3.18942 -0.778517,1.25967 -0.686751,1.71114 0.183339,0.902 0.400182,-0.37216 1.661333,-1.35975 2.802558,-2.19465 z m 50.444839,17.57089 c -2.465664,-0.49028 -6.249358,-2.11038 -7.342188,-3.14378 -0.694136,-0.65639 -0.78792,-1.90518 -0.180911,-2.40895 0.342012,-0.28385 0.827319,-0.2601 2.7782,0.13594 1.703723,0.34587 3.055373,0.44369 4.8404,0.35032 l 2.476601,-0.12954 0.165492,2.33146 c 0.09102,1.2823 0.196906,2.48523 0.235303,2.67318 0.08734,0.42752 -1.327304,0.51858 -2.972897,0.19137 z m 1.786986,-4.41371 c 0.122553,-0.37119 -1.454242,-0.44539 -3.23075,-0.15203 -0.849236,0.14024 -0.949143,0.2122 -0.529166,0.38113 0.808854,0.32536 3.633683,0.15324 3.759916,-0.2291 z m -26.226474,2.24896 c -0.08774,-0.32742 -0.161163,-0.84475 -0.16315,-1.14962 -0.002,-0.30486 -0.252491,-0.77953 -0.556676,-1.05482 -0.54272,-0.49115 -0.56004,-0.49097 -0.926042,0.01 -0.205138,0.28055 -0.372978,0.66218 -0.372978,0.84808 0,0.19175 -0.171733,0.27211 -0.396875,0.18571 -0.542697,-0.20825 -0.499452,-0.48171 0.198437,-1.25481 0.592586,-0.65644 0.603189,-0.65775 2.315105,-0.28485 0.945885,0.20604 2.337843,0.3771 3.093239,0.38013 0.755396,0.003 1.436233,0.10711 1.51297,0.23127 0.247995,0.40126 -3.294767,2.68466 -4.165336,2.68466 -0.208536,0 -0.450948,-0.26789 -0.538694,-0.59531 z m -54.141764,-1.12448 c -1.091406,-0.7898 -2.143322,-1.44032 -2.33759,-1.4456 -0.194269,-0.005 0.134596,0.54458 0.730809,1.22191 0.596214,0.67733 1.035144,1.2804 0.975402,1.34014 -0.110883,0.11088 -7.182311,-3.4868 -7.752131,-3.944 -0.5793,-0.46481 -0.69084,-1.77571 -0.21312,-2.50481 0.41165,-0.62824 0.56468,-0.67206 1.98781,-0.56912 1.23558,0.0894 1.84798,0.31359 3.083141,1.12883 2.784798,1.83804 6.856971,6.27385 5.708492,6.21825 -0.109141,-0.005 -1.091407,-0.6558 -2.182813,-1.4456 z m -3.195025,-4.00469 c -0.719995,-0.78281 -2.839645,-1.8304 -3.110815,-1.53744 -0.097,0.10484 -0.0574,0.23877 0.0881,0.29761 0.14552,0.0589 0.91943,0.50969 1.71979,1.00187 1.772609,1.09004 2.149991,1.15897 1.302895,0.23796 z m 41.142171,4.82002 c -2.16799,-0.94401 -4.843938,-4.63093 -5.508831,-7.59005 -1.003385,-4.46559 -0.697719,-7.71454 1.064698,-11.31673 1.072637,-2.19235 2.114734,-3.45304 4.139639,-5.00796 1.459085,-1.12044 5.643306,-3.32179 6.92563,-3.64363 0.877769,-0.22031 0.875989,-0.20168 -0.234181,2.4504 -0.937312,2.23915 -1.207017,3.87921 -1.207017,7.33983 0,5.02908 1.280365,8.23802 4.686129,11.74471 1.384386,1.4254 1.892369,2.12686 1.78507,2.46493 -0.499627,1.57418 -5.988702,3.93476 -9.117032,3.92077 -0.945886,-0.004 -2.086233,-0.16725 -2.534105,-0.36227 z m 0.918746,-22.07541 c 1.14538,-0.67623 2.453651,-1.43232 2.907268,-1.68022 0.507793,-0.2775 0.824758,-0.65881 0.824758,-0.99218 0,-1.1584 -2.069024,-0.44512 -4.908805,1.69227 -1.658882,1.24857 -3.557862,3.48295 -3.557862,4.18625 0,0.13413 0.596729,-0.25575 1.326065,-0.86638 0.729336,-0.61064 2.263195,-1.66352 3.408576,-2.33974 z m -34.844225,21.07487 c -0.174625,-0.17462 -0.3175,-0.44579 -0.3175,-0.60258 0,-0.1568 -0.189321,-0.55538 -0.420713,-0.88574 -0.315428,-0.45034 -0.506703,-0.52929 -0.764329,-0.31548 -0.262609,0.21795 -0.687298,-0.0946 -1.801429,-1.32575 -1.586059,-1.75266 -1.809421,-2.22205 -1.480485,-3.11125 0.161771,-0.43731 0.431049,-0.58545 1.0642,-0.58545 1.299003,0 2.801718,1.73118 3.867776,4.45581 0.792605,2.02574 0.882781,2.68794 0.366031,2.68794 -0.107828,0 -0.338926,-0.14287 -0.513551,-0.3175 z m 62.71948,-1.53168 c -0.472942,-0.28836 -0.859895,-0.65092 -0.859895,-0.8057 0,-0.32008 2.018404,-1.29925 2.696364,-1.30806 0.732499,-0.01 0.795326,0.4423 0.218682,1.57262 -0.618713,1.21278 -0.852587,1.27436 -2.055151,0.54114 z m -10.745172,-2.41029 c -2.136434,-0.23587 -4.812783,-1.47346 -6.241721,-2.88627 -3.437344,-3.39855 -5.289986,-8.91267 -4.519438,-13.45144 0.719668,-4.23908 3.557791,-8.12026 7.254236,-9.92029 5.32232,-2.59178 10.194603,-2.80007 19.236835,-0.82238 2.295323,0.50202 4.423325,0.91277 4.728893,0.91277 1.241664,0 0.889482,1.22086 -1.06572,3.69437 -0.648211,0.82005 -1.107287,1.68224 -1.107287,2.07959 0,0.74809 1.132603,1.89959 1.866837,1.89797 1.351747,-0.003 4.046138,-2.9804 4.966168,-5.48783 0.580784,-1.58286 0.996368,-1.91952 2.369512,-1.91952 1.442568,0 4.7940677,-0.86842 6.7649138,-1.75288 0.8647156,-0.38806 1.6453956,-0.63238 1.7348443,-0.54293 0.2657984,0.2658 -0.6026097,1.39353 -2.637881,3.42561 -1.6468796,1.64429 -3.1168492,2.7356 -6.2570991,4.64529 -0.619445,0.37671 -0.625965,0.40604 -0.132291,0.59513 0.619174,0.23716 3.086513,-0.0437 6.1555325,-0.70061 0.5262031,-0.11264 0.5732388,-0.0632 0.345307,0.36266 -0.3552362,0.66376 -2.6070457,1.83014 -6.9076145,3.57797 -1.964531,0.79842 -4.881563,2.05248 -6.482292,2.7868 -5.955908,2.73221 -10.43524,3.10656 -14.229984,1.18924 -1.092966,-0.55223 -1.255212,-0.7373 -1.190625,-1.35813 0.06752,-0.64903 -0.01645,-0.72644 -0.86537,-0.79779 -0.653645,-0.0549 -1.1636,0.0968 -1.673405,0.49777 -1.264827,0.99491 -1.595357,2.83557 -0.352918,1.96534 0.802176,-0.56187 1.01841,-0.51754 2.570478,0.52692 1.909624,1.28508 3.899997,1.83229 6.613699,1.8183 2.542589,-0.0131 4.691314,-0.40949 7.011458,-1.29342 0.873125,-0.33264 2.405701,-0.91969 3.405724,-1.30456 1.000024,-0.38486 1.892992,-0.62105 1.984375,-0.52488 0.202706,0.21334 -6.295158,6.45019 -7.771349,7.45919 -0.582083,0.39786 -1.738351,1.2165 -2.569485,1.8192 -2.496794,1.81057 -6.662666,3.32999 -9.865932,3.5984 -0.727604,0.061 -2.139885,0.0206 -3.138401,-0.0896 z m 10.584062,-16.50845 c -0.241022,-0.6281 1.183018,-2.72055 2.067957,-3.03862 1.039995,-0.37379 1.995758,-1.29925 1.995758,-1.93247 0,-0.38293 -0.116285,-0.46368 -0.463021,-0.32152 -0.254662,0.1044 -0.948062,0.24932 -1.54089,0.32204 -1.226243,0.15042 -2.374962,-0.34601 -5.075229,-2.19331 -2.03522,-1.39233 -3.221284,-1.80224 -4.724505,-1.6328 -1.121346,0.12639 -3.013022,1.25449 -3.013022,1.79682 0,0.13811 0.684609,0.25112 1.521354,0.25112 l 1.521354,1e-5 -0.0043,2.61039 c -0.0028,1.6785 -0.121151,2.75114 -0.331556,3.00466 -0.285131,0.34356 0.02171,0.41347 2.385587,0.54351 1.492044,0.0821 3.189056,0.32894 3.77114,0.54856 1.411977,0.53277 2.08356,0.54755 1.88941,0.0416 z m -19.748786,-2.94778 c 0,-0.61375 3.23656,-4.08867 4.650868,-4.99339 2.340486,-1.49719 3.405042,-1.94877 5.908784,-2.50646 3.897133,-0.86808 8.363725,-0.60821 15.871466,0.9234 1.804042,0.36804 3.336138,0.61309 3.404658,0.54457 0.140191,-0.14019 -0.07286,-0.19359 -3.774317,-0.94608 -1.455208,-0.29584 -3.360208,-0.72109 -4.233333,-0.945 -2.450854,-0.6285 -8.287824,-0.78878 -10.870261,-0.29849 -2.931689,0.55661 -5.90245,1.8916 -7.901166,3.55062 -1.299102,1.07831 -1.90751,1.8463 -2.758572,3.48215 -0.600532,1.1543 -1.08809,2.19961 -1.083462,2.32291 0.01321,0.35191 0.785335,-0.76325 0.785335,-1.13423 z m 75.126253,8.77428 c -0.871778,-0.47416 -1.281332,-1.39933 -1.485912,-3.35665 -0.169114,-1.61799 -0.851944,-2.86859 -1.566257,-2.86859 -0.210839,0 -0.526208,-0.31356 -0.700821,-0.69679 -0.29215,-0.6412 -0.24505,-0.75725 0.590407,-1.45472 l 0.907884,-0.75793 -0.06381,-2.38373 c -0.03618,-1.35127 0.06167,-2.61819 0.225902,-2.92506 0.684186,-1.27841 3.235058,-2.08867 3.489314,-1.10834 0.167859,0.64722 -0.03472,1.12448 -0.477294,1.12448 -0.206155,0 -0.602415,0.22759 -0.880579,0.50576 -0.442181,0.44218 -0.487403,0.77347 -0.359767,2.63564 0.116965,1.70647 0.05971,2.26155 -0.287997,2.79223 -0.572066,0.87308 -0.551514,1.05604 0.211049,1.87886 0.457193,0.49332 0.694236,1.13295 0.813995,2.19645 0.274672,2.43917 0.451623,2.79462 1.526152,3.06565 1.049073,0.26461 1.427415,0.8104 0.955738,1.37874 -0.386108,0.46523 -2.021817,0.45056 -2.898,-0.026 z m 13.340263,-1.33045 c -0.233292,-0.60795 0.06003,-1.10943 0.879543,-1.50373 0.734826,-0.35356 0.744568,-0.38946 0.744568,-2.74377 0,-1.86794 0.105388,-2.5469 0.485719,-3.12925 0.476752,-0.72998 0.475232,-0.75348 -0.08235,-1.27295 -0.734421,-0.68422 -0.957275,-1.30476 -1.188966,-3.31071 -0.202322,-1.75168 -0.355193,-1.97967 -1.595649,-2.37976 -0.592355,-0.19105 -0.79375,-0.41825 -0.79375,-0.89542 0,-0.54148 0.144121,-0.65152 0.940984,-0.71848 1.216257,-0.10219 2.23543,0.29482 2.742159,1.06818 0.221939,0.33872 0.526304,1.5049 0.676368,2.5915 0.27926,2.02211 0.259713,1.98934 2.056635,3.44785 0.522542,0.42413 0.393718,0.89694 -0.498877,1.83095 -0.818659,0.85665 -0.8274,0.8942 -0.662445,2.84561 0.128522,1.52042 0.07093,2.18029 -0.249173,2.85486 -0.640835,1.35046 -3.084273,2.2806 -3.454762,1.31512 z m -6.592115,-1.83654 c -0.448937,-0.68516 -1.520736,-0.92567 -1.837941,-0.41242 -0.228082,0.36905 -0.702712,0.31658 -1.313453,-0.14518 -0.366202,-0.27687 -0.522499,-0.71705 -0.529167,-1.49028 -0.0081,-0.94072 -0.122765,-1.16005 -0.803213,-1.53649 -1.062195,-0.58765 -1.206318,-1.65929 -0.302775,-2.25131 0.890512,-0.58349 1.037654,-1.09789 0.533944,-1.86664 -0.39018,-0.5955 -0.389247,-0.70113 0.01159,-1.31289 0.366679,-0.55962 0.611402,-0.65418 1.540801,-0.59531 0.996356,0.0631 1.142464,-0.008 1.487443,-0.72377 0.694613,-1.44123 1.658614,-1.60864 2.285242,-0.39688 0.43488,0.84096 1.091648,1.00694 2.019512,0.51036 0.404272,-0.21636 0.682229,-0.18332 1.175178,0.13967 0.564305,0.36975 0.624499,0.55541 0.477702,1.47342 -0.162153,1.01405 -0.134774,1.06424 0.791803,1.45139 0.830545,0.34702 0.959764,0.51949 0.959764,1.28103 0,0.68194 -0.148892,0.94786 -0.661459,1.1814 -0.719893,0.32801 -0.857045,1.06506 -0.349439,1.87787 0.250122,0.40051 0.222416,0.63637 -0.139667,1.18898 -0.394705,0.60239 -0.577534,0.66923 -1.449266,0.52984 -1.064125,-0.17016 -1.495372,0.1086 -1.673344,1.08167 -0.06858,0.37495 -0.342001,0.55297 -0.938226,0.61086 -0.661314,0.0642 -0.936401,-0.0632 -1.285034,-0.59532 z m 2.142836,-3.70768 c 0.818575,-0.81858 0.862348,-2.18353 0.101062,-3.15135 -0.442432,-0.56246 -0.770966,-0.69714 -1.700589,-0.69714 -0.929622,0 -1.258157,0.13468 -1.700588,0.69714 -1.76981,2.24995 1.2847,5.16676 3.300115,3.15135 z m -55.265847,-2.43738 c -0.305532,-0.30553 -0.208142,-0.49107 1.138518,-2.16904 1.520583,-1.89468 2.12178,-3.55535 2.31498,-6.39457 0.257518,-3.78445 -0.93307,-6.98811 -3.693797,-9.93933 -4.175997,-4.46416 -10.367835,-6.72743 -17.398591,-6.35963 -6.26691,0.32784 -11.984599,2.47852 -20.505208,7.71292 -7.701062,4.73094 -12.100732,6.87091 -16.933334,8.23628 -2.423339,0.68467 -3.01295,0.74712 -7.011459,0.74258 -5.091257,-0.006 -7.321028,-0.46148 -10.924582,-2.23267 -2.265152,-1.11334 -2.221249,-1.12215 0.605832,-0.12159 2.986906,1.05713 5.731421,1.50636 9.260417,1.51578 7.088277,0.0189 11.638028,-1.64719 22.754167,-8.33255 9.921986,-5.96718 14.859243,-8.11119 20.617452,-8.95315 2.991834,-0.43747 8.001312,-0.18653 10.735674,0.53777 9.25923,2.45266 15.386906,10.06929 14.419717,17.92353 -0.501133,4.06955 -4.019991,9.19347 -5.379786,7.83367 z m 11.99965,-9.28246 c 0.00286,-0.10914 0.1773029,-1.15094 0.3876442,-2.31511 0.7746241,-4.28728 0.2338859,-7.7143 -1.711653,-10.84791 -1.4950112,-2.40797 -2.1117052,-3.07332 -4.4990132,-4.85402 -4.944038,-3.68776 -12.921187,-5.61899 -20.003402,-4.84272 -3.642242,0.39922 -9.212045,2.04219 -12.014199,3.54393 -1.236927,0.66289 -2.546615,1.28257 -2.910417,1.37705 -1.3404,0.34811 0.820654,-1.13077 3.042708,-2.08223 1.164167,-0.49849 2.955427,-1.267 3.980577,-1.70781 2.310044,-0.9933 5.984775,-1.82758 9.529148,-2.16341 4.742207,-0.44933 10.696835,0.6112 15.065276,2.68315 3.346095,1.58705 4.78223,2.56277 6.75187,4.58725 2.0751236,2.1329 2.6836738,3.12028 3.7007732,6.00455 0.6458383,1.83146 0.7826156,2.63988 0.7869286,4.65113 0.0062,2.89229 -0.3910309,4.97333 -1.0810231,5.66333 -0.5088101,0.50881 -1.0346962,0.66414 -1.0252177,0.30282 z m -58.490091,-9.06058 c 1.230346,-0.43733 2.36144,-0.79026 2.513542,-0.78429 0.565931,0.0222 -2.673606,1.26944 -3.6922,1.42147 -0.716714,0.10698 -0.336256,-0.0987 1.178658,-0.63718 z m 5.568217,-2.24771 c 0,-0.0713 1.071563,-0.6678 2.381251,-1.32557 1.309687,-0.65776 2.38125,-1.08822 2.38125,-0.95657 0,0.13165 -0.986711,0.72816 -2.192691,1.32557 -2.142486,1.06134 -2.56981,1.2204 -2.56981,0.95657 z m 5.027084,-2.61819 c 0,-0.19482 3.736929,-2.55042 4.653602,-2.93343 0.980055,-0.4095 0.988146,-0.40801 0.53043,0.0978 -0.563033,0.62215 -5.184032,3.14983 -5.184032,2.83567 z"
         id="path16" /><path
         style="fill:#301213"
         d="m -52.491979,193.33702 c -3.362327,-2.46976 -6.591658,-9.17516 -6.281234,-13.04239 0.07526,-0.93764 0.06082,-1.66945 -0.03211,-1.62625 -0.09292,0.0432 -0.849911,0.47472 -1.682196,0.95894 -1.234977,0.71851 -1.538451,1.03472 -1.650322,1.71962 -0.542699,3.32249 -0.768992,4.40216 -1.248387,5.95623 -0.696351,2.25739 -1.843581,4.52818 -2.889523,5.71944 -0.944382,1.0756 -1.28983,1.14769 -1.958554,0.40876 -0.461995,-0.5105 -0.458503,-0.67709 0.101219,-4.82865 1.05303,-7.8105 1.162023,-8.52801 1.388114,-9.13799 0.333357,-0.89937 -0.233196,-0.96749 -1.90341,-0.22884 -1.30431,0.57683 -1.488704,0.76403 -1.911943,1.94101 -1.420792,3.95109 -5.645457,7.98608 -8.0689,7.70663 -1.279428,-0.14754 -1.105329,-1.23851 0.561982,-3.52159 0.796141,-1.09016 1.829452,-2.90554 2.296246,-4.03416 0.466795,-1.12863 0.996632,-2.40923 1.177417,-2.84579 0.180785,-0.43657 0.761972,-1.3593 1.291526,-2.05053 l 0.962826,-1.25677 h -0.809656 c -0.454278,0 -1.187311,0.28805 -1.670067,0.65627 -1.43482,1.09439 -2.966364,1.49354 -5.586573,1.45598 -1.309688,-0.0188 -3.636208,0.0466 -5.170045,0.14538 -2.395002,0.15418 -3.086502,0.0992 -4.897115,-0.38935 l -2.10832,-0.56889 -2.511219,1.17102 c -8.332647,3.88565 -16.202127,4.41003 -18.855687,1.25645 -0.88561,-1.05248 -1.15556,-2.41351 -0.69788,-3.51846 0.49611,-1.19772 1.74377,-2.53551 2.92824,-3.13978 0.55948,-0.28542 1.01724,-0.64328 1.01724,-0.79524 0,-0.15196 -0.33574,-0.5588 -0.74609,-0.90408 -0.41035,-0.34529 -0.9608,-1.10394 -1.22323,-1.68589 -1.14409,-2.53715 0.65106,-4.727 4.26837,-5.20685 l 1.32954,-0.17637 -0.0284,-1.57764 c -0.0268,-1.49256 0.0238,-1.62544 0.93803,-2.46438 1.50792,-1.38366 3.17145,-1.48395 5.98036,-0.36055 0.836081,0.33438 0.884862,0.31592 1.664735,-0.6302 2.497614,-3.03004 6.638124,-0.34698 8.570869,5.55394 0.255119,0.77891 0.614283,1.38906 0.817666,1.38906 0.199486,0 1.046011,-0.17798 1.881165,-0.39551 1.133566,-0.29526 1.790733,-0.67087 2.592597,-1.48184 0.590773,-0.59749 1.572967,-1.37911 2.182653,-1.73695 0.749995,-0.44018 1.295802,-1.03748 1.687573,-1.84677 0.764922,-1.58012 2.662397,-3.43504 4.76292,-4.6561 1.298734,-0.75498 1.84951,-1.26878 2.327194,-2.17096 1.313676,-2.48109 4.932847,-5.461 8.190506,-6.74379 1.053809,-0.41497 1.985541,-1.13585 3.704167,-2.86594 1.561583,-1.57199 2.963536,-2.68729 4.382079,-3.48608 2.298991,-1.29456 6.159038,-2.82689 7.976479,-3.16642 0.643047,-0.12014 1.916301,-0.70454 2.829453,-1.29869 3.994505,-2.59902 6.929907,-3.36003 12.905069,-3.34566 4.013625,0.01 4.746321,0.0908 9.087138,1.00707 2.596832,0.54812 5.097145,0.96012 5.55625,0.91555 0.741808,-0.072 0.844508,-0.18401 0.922501,-1.00602 0.04827,-0.50874 -0.05194,-1.63508 -0.222687,-2.50298 -0.779073,-3.95995 -3.866367,-7.62634 -8.231307,-9.77528 -3.708362,-1.8257 -6.00105,-2.35645 -10.154603,-2.35078 -6.921998,0.009 -11.540907,1.69222 -22.357292,8.14524 -10.315922,6.15444 -14.612273,7.87752 -21.431251,8.59512 -6.624377,0.69711 -14.257562,-1.5765 -19.532164,-5.81784 -1.64695,-1.32432 -2.07996,-2.38752 -1.17058,-2.8742 0.54206,-0.2901 0.43739,-0.33523 3.475413,1.49854 7.641498,4.61246 16.266725,5.33365 24.595996,2.05656 3.229808,-1.27075 10.763526,-5.43936 10.181119,-5.63349 -0.131768,-0.0439 -1.128046,0.22807 -2.213952,0.60442 -7.924732,2.74659 -14.466168,2.53387 -21.081319,-0.68556 -2.869879,-1.3967 -3.473303,-1.9915 -2.97154,-2.92905 0.374578,-0.6999 0.939275,-0.60655 3.964178,0.65536 3.025778,1.26227 5.642508,1.78811 8.986182,1.80581 6.383994,0.0338 11.917864,-2.04361 22.621876,-8.49218 9.369963,-5.64488 14.368095,-7.438 21.960417,-7.8785 6.169898,-0.35796 13.798942,1.72875 18.842698,5.1539 5.6921614,3.86547 8.6552639,10.35746 7.7488749,16.97735 -0.1640881,1.19843 -0.2416254,2.23569 -0.1723052,2.30501 0.2143763,0.21437 1.2855955,-0.45548 3.1556637,-1.97331 0.9865243,-0.8007 1.86314457,-1.38636 1.94804502,-1.30146 0.27165303,0.27166 -0.48147593,2.90934 -1.29468022,4.53437 -0.9226451,1.84371 -2.3969029,3.87718 -3.7404997,5.15932 -1.7676699,1.68681 -1.0660077,1.79035 1.8626204,0.27485 1.1290673,-0.58426 2.1554161,-1.02811 2.2807753,-0.98632 0.12535908,0.0418 -0.1397409,0.77492 -0.5891111,1.62918 -1.5690204,2.98276 -3.6964725,4.88618 -7.6186429,6.81636 -1.4915882,0.73404 -2.7121942,1.47026 -2.7124572,1.63604 -0.0011,0.72496 -8.686347,9.1782 -11.71159,11.39881 -0.979925,0.71929 -1.781682,1.3877 -1.781682,1.48537 0,0.0977 0.446484,0.48525 0.992187,0.86132 1.207802,0.83234 4.726168,1.27246 8.353996,1.04504 l 2.334724,-0.14636 2.163192,-2.1443 c 1.299401,-1.28805 2.8499285,-2.51581 3.8829844,-3.07469 1.4667426,-0.79351 1.7305493,-1.04655 1.7929032,-1.71979 1.1516399,-12.43436 10.9516861,-25.77712 23.0975794,-31.44736 7.351798,-3.43214 14.992917,-4.04136 20.877384,-1.66451 2.870052,1.15926 4.16634,2.34871 3.471769,3.18561 -0.154642,0.18634 -1.444401,0.6779 -2.86613,1.09236 -3.635345,1.05977 -7.203103,2.54935 -9.420734,3.93325 -5.044095,3.14773 -8.670188,7.97951 -10.357183,13.80098 -0.647908,2.23579 -1.35738,7.85006 -1.054034,8.34089 0.08484,0.13728 0.781273,0.24959 1.547624,0.24959 0.827424,0 2.513659,0.34828 4.151572,0.85748 2.594282,0.80652 2.99408,0.85742 6.726959,0.85654 3.662491,-8.7e-4 4.132088,-0.058 6.085416,-0.74047 3.101986,-1.08379 5.208934,-2.45622 8.397197,-5.46978 3.075346,-2.90684 3.550801,-3.0853 4.179054,-1.56856 0.477325,1.15236 0.164027,4.48413 -0.639944,6.80547 -1.446016,4.17516 -3.723951,7.6044 -7.691349,11.57869 -4.946044,4.95464 -10.608513,8.06444 -17.39579,9.55369 -1.701828,0.37341 -3.324487,0.48037 -7.222085,0.47605 -4.667567,-0.005 -5.216302,-0.0579 -7.6729165,-0.73742 -1.4552084,-0.40252 -3.2852994,-1.0245 -4.066869,-1.38218 -1.4889606,-0.68143 -2.4031614,-0.81401 -2.825527,-0.40978 -0.56463072,0.54039 -3.2457445,1.08236 -5.3544145,1.08236 -2.3695057,0 -4.8099921,-0.50854 -6.446051,-1.34319 -0.79993,-0.4081 -1.562992,-0.50967 -3.852328,-0.51281 -4.17674,-0.006 -7.113764,-0.82631 -10.90011,-3.04542 -0.892632,-0.52316 -2.204359,-1.12385 -2.914948,-1.33487 -0.71059,-0.21103 -2.029402,-0.92654 -2.930695,-1.59003 -1.591901,-1.1719 -2.380934,-1.34387 -2.380934,-0.51893 0,0.51262 1.833411,1.84498 4.999994,3.63355 3.294376,1.86074 3.819485,2.41596 4.378696,4.62977 0.59219,2.34437 0.610771,7.22511 0.03689,9.68942 -0.831482,3.57047 -2.487903,6.06612 -3.62302,5.45862 -0.449614,-0.24062 -0.500756,-0.5989 -0.499579,-3.4999 7.2e-4,-1.77751 -0.141796,-4.76613 -0.316704,-6.64137 l -0.318014,-3.40954 -1.045911,-0.75765 c -0.575251,-0.41671 -1.147109,-0.75765 -1.270796,-0.75765 -0.123687,0 -0.224886,0.76117 -0.224886,1.69149 0,3.77571 -1.573224,8.49682 -3.566706,10.70336 -1.068604,1.18282 -2.060457,1.43767 -2.474764,0.63588 -0.156942,-0.30373 -0.03581,-1.46432 0.35208,-3.37344 0.325235,-1.60073 0.676521,-3.94018 0.780637,-5.19878 l 0.189301,-2.28836 -1.807462,-1.18437 c -0.994103,-0.6514 -2.338266,-1.735 -2.987029,-2.40799 -1.642536,-1.70389 -1.86314,-1.62377 -1.86314,0.67668 0,1.04517 -0.132275,2.93174 -0.293944,4.19236 l -0.293943,2.29205 2.003631,3.94358 c 1.101997,2.16897 2.785247,5.19373 3.740555,6.7217 2.009211,3.21364 2.087987,3.79981 0.526116,3.91489 -0.863455,0.0636 -1.363073,-0.11472 -2.645833,-0.94442 -3.212237,-2.0777 -6.340885,-6.31875 -8.389734,-11.37274 -0.920414,-2.27042 -1.02666,-2.75152 -0.890675,-4.03314 0.08492,-0.80037 0.228722,-1.7231 0.319557,-2.05052 0.309402,-1.11527 -0.29118,-0.59445 -1.414642,1.22677 -0.616661,0.99966 -1.672641,2.43089 -2.34662,3.18052 -1.035214,1.15141 -1.201426,1.48292 -1.070845,2.13582 0.235311,1.17656 1.945414,5.64836 3.270044,8.55094 0.650715,1.42588 1.116796,2.76533 1.035737,2.97657 -0.276474,0.72048 -2.033237,0.45551 -3.338988,-0.50361 z m -0.864932,-5.38408 c -0.801947,-1.86204 -1.536646,-3.7564 -1.632663,-4.20968 -0.374284,-1.76691 -2.230295,-2.69073 -2.046319,-1.01854 0.120581,1.09599 1.565571,4.51881 2.509218,5.94372 0.904009,1.36506 2.339915,2.95798 2.511626,2.78627 0.06392,-0.0639 -0.539914,-1.63972 -1.341862,-3.50177 z m 14.0423,2.76602 c -1.323634,-2.08878 -1.875511,-3.06974 -3.672373,-6.52764 -1.756008,-3.37928 -2.092249,-3.86764 -2.713484,-3.94112 -1.091608,-0.1291 -1.135433,0.55473 -0.171524,2.67641 1.211101,2.66578 3.030859,5.36589 4.716752,6.9986 1.522462,1.47444 2.553807,1.9192 1.840629,0.79375 z m -25.928977,-3.63802 c 1.101013,-3.42515 1.550921,-6.14927 1.158015,-7.01161 -0.360715,-0.79168 -0.726087,-0.84277 -1.095167,-0.15314 -0.547253,1.02255 -1.609588,10.46831 -1.118245,9.94288 0.136081,-0.14552 0.611009,-1.39568 1.055397,-2.77813 z m -7.519237,-5.64078 c 0.412325,-0.97016 0.680837,-1.94334 0.596693,-2.16262 -0.314767,-0.82027 -0.933711,-0.37627 -1.468671,1.05354 -0.29884,0.79872 -0.962238,2.28403 -1.474219,3.30068 -0.511981,1.01666 -0.926335,1.94074 -0.920788,2.05352 0.03137,0.63766 2.623024,-2.72994 3.266985,-4.24512 z m 47.282874,0.68666 c 0.208826,-0.72953 0.353358,-2.41481 0.341963,-3.9874 -0.02109,-2.91076 -0.267372,-3.59398 -1.101377,-3.0554 -0.371628,0.23999 -0.446707,0.65396 -0.406806,2.24301 0.08073,3.21511 0.382161,6.32441 0.600058,6.18974 0.112455,-0.0695 0.367228,-0.69498 0.566162,-1.38995 z m -8.06388,-3.08603 c 0.467771,-1.7567 0.463187,-2.54318 -0.01482,-2.54318 -0.558162,0 -0.61283,0.18094 -0.800144,2.64831 -0.189023,2.48989 0.135104,2.44807 0.814968,-0.10513 z m -20.581441,0.40016 c 1.286112,-1.38355 2.539973,-3.17836 3.548485,-5.0794 0.99363,-1.87299 1.208345,-2.72808 0.755333,-3.00805 -0.13194,-0.0815 -1.602942,1.48985 -3.268892,3.49199 -1.66595,2.00214 -3.224874,3.80282 -3.464275,4.0015 -0.687462,0.57054 -0.513577,1.04696 0.424621,1.16339 0.472943,0.0587 0.958351,0.12576 1.078686,0.14905 0.120335,0.0233 0.537053,-0.30003 0.926042,-0.71848 z m -47.579208,-1.64989 c 2.869931,-0.82724 6.879167,-2.5306 6.879167,-2.92267 0,-0.28976 0.0014,-0.28984 -3.065762,0.17245 -4.772965,0.7194 -5.238855,0.43396 -1.299863,-0.79638 2.291588,-0.71578 2.993251,-1.0595 2.720201,-1.33255 -0.09619,-0.0962 -2.652585,-0.23514 -5.680883,-0.30879 -5.25199,-0.12772 -5.57922,-0.10623 -7.09349,0.46568 -1.84929,0.69844 -3.57187,2.25098 -3.57187,3.21927 0,1.6211 2.66479,2.66649 6.21771,2.43918 1.17141,-0.0749 3.35731,-0.49302 4.89479,-0.93619 z m 40.035624,0.51613 c 1.727597,-0.91797 6.001877,-5.13873 6.001877,-5.92671 0,-0.61479 -0.335521,-0.46083 -2.269811,1.0415 -1.007177,0.78226 -2.714457,1.94312 -3.793957,2.57969 -1.079499,0.63657 -2.009601,1.29856 -2.066893,1.4711 -0.05729,0.17253 0.230622,0.49519 0.639809,0.71701 0.912992,0.49493 0.795877,0.4857 1.488975,0.11741 z m 15.989283,-0.0864 c 0.821715,-0.23617 0.961734,-0.99744 0.978413,-5.3196 0.01093,-2.83311 -0.07507,-3.83676 -0.358043,-4.17841 -0.204838,-0.24731 -0.470807,-0.35128 -0.591042,-0.23104 -0.120236,0.12024 -0.406597,1.70286 -0.636358,3.51694 -0.229761,1.81409 -0.528675,3.71505 -0.664253,4.22438 -0.135578,0.50932 -0.247169,1.26148 -0.247981,1.67147 -0.0012,0.58308 0.09937,0.71731 0.461546,0.61631 0.254661,-0.071 0.730634,-0.20604 1.057718,-0.30005 z m -22.7428,-1.05709 c 2.066648,-0.96212 5.403802,-3.60793 5.026533,-3.9852 -0.07224,-0.0722 -1.254313,0.43665 -2.626822,1.13087 -1.37251,0.69423 -3.175837,1.54483 -4.007395,1.89024 -1.395573,0.57967 -1.782213,0.99788 -1.335534,1.44456 0.354933,0.35493 1.577469,0.15536 2.943218,-0.48047 z m -16.81315,-1.87738 c 0.08414,-0.0841 -0.163905,-0.763 -0.551215,-1.50858 -0.609999,-1.17426 -0.71618,-1.73779 -0.793755,-4.21264 -0.102661,-3.27516 -0.08856,-3.26172 -2.328621,-2.21871 -1.703222,0.79305 -3.501591,2.39602 -3.985808,3.55275 -0.331211,0.79122 -0.318143,0.98366 0.124749,1.83709 0.272092,0.52431 0.784199,1.16302 1.138015,1.41935 1.030061,0.74628 5.917199,1.61018 6.396635,1.13074 z m 8.465788,-0.86342 c 0.235671,-0.23568 -0.08067,-0.69756 -1.332386,-1.94541 -1.869127,-1.86335 -2.540675,-3.31727 -3.016167,-6.5301 -0.164219,-1.1096 -0.39843,-2.13055 -0.520469,-2.26877 -0.131944,-0.14944 -0.801124,0.34672 -1.650827,1.22398 -1.184498,1.22293 -1.486898,1.73429 -1.767756,2.9893 -0.595034,2.65889 0.199441,4.58305 2.554195,6.18607 1.258456,0.8567 1.375638,0.88355 3.364119,0.7708 1.133135,-0.0643 2.199316,-0.2559 2.369291,-0.42587 z m 43.063173,-0.29838 c 0,-0.23941 -1.984483,-1.60958 -3.866355,-2.66948 -0.453005,-0.25514 -1.072669,-0.61941 -1.377029,-0.80948 -0.898712,-0.56126 -0.997979,-0.0297 -0.161286,0.86369 1.750512,1.86908 5.40467,3.6373 5.40467,2.61527 z m 6.725236,-0.96248 c 0.966475,-0.37087 0.368122,-1.07082 -2.161173,-2.52813 -1.418828,-0.81749 -2.855402,-1.56949 -3.192385,-1.67111 -0.336983,-0.10162 -1.027705,-0.54915 -1.534937,-0.99451 -0.668625,-0.58706 -1.001976,-0.73 -1.212194,-0.51978 -0.474714,0.47471 2.522689,3.30205 4.947328,4.66662 2.188022,1.23141 2.447812,1.31766 3.153361,1.04691 z m 51.223957,-1.36966 c 8.666933,-2.23396 16.020803,-8.15689 20.407552,-16.43659 1.094122,-2.06508 2.199862,-5.01682 1.966682,-5.25 -0.07498,-0.075 -0.796378,0.4669 -1.603093,1.20419 -4.025697,3.67926 -9.404286,5.87502 -14.383711,5.87201 -2.256932,-0.001 -6.083656,-0.62249 -8.087938,-1.31278 -3.342042,-1.15103 -6.415085,-0.42565 -9.324017,2.20091 -0.748986,0.67628 -1.433595,1.2296 -1.521354,1.2296 -0.73884,0 0.761684,-2.89442 2.463476,-4.75191 l 1.081128,-1.18003 4.5e-5,-2.52413 c 6.9e-5,-3.82565 0.605433,-6.49046 2.517813,-11.08341 1.614829,-3.87832 5.037908,-7.86151 9.078932,-10.56451 2.199688,-1.47135 3.057728,-1.87036 7.94806,-3.6961 1.072532,-0.40042 1.94442,-0.84241 1.937527,-0.98221 -0.0069,-0.1398 -0.4677,-0.43378 -1.024016,-0.6533 -1.579593,-0.62329 -9.666917,-0.56302 -12.123986,0.0904 -6.238272,1.65888 -12.276714,5.46255 -17.0786787,10.75804 -5.1572144,5.68725 -7.7425994,10.24239 -9.3713837,16.51124 -1.0002986,3.84993 -1.1537491,7.35992 -0.4443395,10.16371 1.1930659,4.71534 3.7438211,7.43861 8.9074211,9.50985 2.3098665,0.92655 3.2852338,1.18849 6.4776058,1.73959 0.363802,0.0628 2.566458,0.0753 4.894792,0.0277 3.656253,-0.0747 4.648851,-0.19362 7.281483,-0.8722 z m -95.242305,0.33284 c 0.429336,-0.22202 0.780611,-0.49602 0.780611,-0.6089 0,-0.11288 -0.511827,-0.69304 -1.137394,-1.28924 -2.416259,-2.30284 -3.873516,-7.13066 -3.518003,-11.65496 0.08812,-1.12145 0.04794,-1.91823 -0.09674,-1.91823 -0.625892,0 -3.36982,2.66106 -3.979112,3.85894 -0.569621,1.11988 -0.660689,1.64942 -0.655916,3.81398 0.0045,2.05992 0.117687,2.76383 0.626943,3.90039 1.447586,3.23074 5.47011,5.19573 7.979611,3.89802 z m 69.4756165,-0.93279 0.73153552,-0.27813 -1.30962372,-1.26825 c -0.7202931,-0.69754 -1.7141432,-1.9466 -2.2085559,-2.7757 -0.9621469,-1.61346 -1.8737534,-4.87245 -1.8771284,-6.71073 -0.00171,-0.92975 -0.089588,-1.12448 -0.5074723,-1.12448 -1.228417,0 -5.2428687,3.99431 -5.9957287,5.96565 -0.432268,1.13187 -0.430848,1.24141 0.02991,2.30767 0.849704,1.96632 1.701095,2.66056 4.4732824,3.64758 1.5238823,0.54258 5.4885348,0.68321 6.6637781,0.23639 z M -100.6194,170.40168 c -0.64013,-0.29043 -1.0995,-0.59243 -1.02083,-0.6711 0.0787,-0.0787 1.46873,0.10715 3.089008,0.41293 4.552613,0.85917 4.559932,0.21507 0.02174,-1.91353 -5.621768,-2.63683 -9.039878,-3.38632 -11.243868,-2.46543 -1.78225,0.74467 -1.46087,2.83447 0.62376,4.05615 1.27967,0.74994 3.03289,0.99841 7.5774,1.07388 l 2.116666,0.0352 z m 38.1486,-0.67753 c 1.852639,-0.65365 1.901545,-0.80888 0.688616,-2.18573 -1.61461,-1.83282 -3.087201,-4.52861 -3.584938,-6.56275 -0.637988,-2.60731 -0.621403,-8.64066 0.0299,-10.87746 0.265982,-0.91347 0.405977,-1.73848 0.3111,-1.83335 -0.608119,-0.60812 -5.488141,3.22029 -6.695883,5.25296 -1.432709,2.4113 -1.765239,3.85764 -1.605683,6.9839 0.119142,2.33442 0.261904,3.00942 0.945402,4.47003 1.344771,2.8737 3.146109,4.69526 5.134531,5.19216 1.077452,0.26925 3.364033,0.0588 4.776955,-0.43976 z m 47.876719,-0.31514 c -0.0384,-0.18795 -0.144283,-1.39088 -0.235303,-2.67318 l -0.165492,-2.33146 -2.476601,0.12954 c -1.785027,0.0934 -3.136677,-0.004 -4.8404,-0.35032 -2.668383,-0.5417 -3.192601,-0.38423 -3.192601,0.95903 0,1.23868 1.539575,2.32584 5.159375,3.64325 2.876645,1.04694 5.904626,1.37503 5.751022,0.62314 z m -25.647779,-1.81142 c 1.398203,-0.71556 3.088473,-2.01015 2.939424,-2.25131 -0.07674,-0.12416 -0.757574,-0.22823 -1.51297,-0.23127 -0.755396,-0.003 -2.147354,-0.17409 -3.093239,-0.38013 -1.711916,-0.3729 -1.722519,-0.37159 -2.315105,0.28485 -0.697889,0.7731 -0.741134,1.04656 -0.198437,1.25481 0.225142,0.0864 0.396875,0.006 0.396875,-0.18571 0,-0.1859 0.16784,-0.56753 0.372978,-0.84808 0.366002,-0.50053 0.383322,-0.50071 0.926042,-0.01 0.304185,0.27529 0.554689,0.74996 0.556676,1.05482 0.0064,0.983 0.31287,1.74493 0.701844,1.74493 0.208535,0 0.760195,-0.195 1.225912,-0.43335 z m -53.52512,-0.26212 c 0,-0.59962 -4.041044,-4.56544 -5.906929,-5.79697 -1.235161,-0.81524 -1.847561,-1.03945 -3.083141,-1.12883 -1.42313,-0.10294 -1.57616,-0.0591 -1.98781,0.56912 -0.47772,0.7291 -0.36618,2.04 0.21312,2.50481 0.56982,0.4572 7.641248,4.05488 7.752131,3.944 0.05974,-0.0597 -0.379188,-0.66281 -0.975402,-1.34014 -0.596213,-0.67733 -0.925078,-1.22719 -0.730809,-1.22191 0.194268,0.005 1.246184,0.6558 2.33759,1.4456 2.172653,1.57225 2.38125,1.66198 2.38125,1.02432 z m 42.399808,-0.74043 c 2.572284,-0.8987 4.532695,-2.13059 4.817225,-3.02706 0.107299,-0.33807 -0.400684,-1.03953 -1.78507,-2.46493 -3.405764,-3.50669 -4.686129,-6.71563 -4.686129,-11.74471 0,-3.46062 0.269705,-5.10068 1.207017,-7.33983 1.11017,-2.65208 1.11195,-2.67071 0.234181,-2.4504 -1.282324,0.32184 -5.466545,2.52319 -6.92563,3.64363 -2.024905,1.55492 -3.067002,2.81561 -4.139639,5.00796 -2.368901,4.84178 -2.166013,10.63173 0.523776,14.94732 2.784023,4.46678 5.397057,5.29971 10.754269,3.42802 z m -39.899881,-0.39415 c 0.08245,-0.1334 -0.237947,-1.23383 -0.71199,-2.44539 -1.066058,-2.72463 -2.568773,-4.45581 -3.867776,-4.45581 -0.633151,0 -0.902429,0.14814 -1.0642,0.58545 -0.328936,0.8892 -0.105574,1.35859 1.480485,3.11125 1.114131,1.23115 1.53882,1.5437 1.801429,1.32575 0.257626,-0.21381 0.448901,-0.13486 0.764329,0.31548 0.231392,0.33036 0.420713,0.72894 0.420713,0.88574 0,0.32515 0.537365,0.92008 0.831051,0.92008 0.107829,0 0.26351,-0.10915 0.345959,-0.24255 z m 63.915121,-2.14777 c 0.576644,-1.13032 0.513817,-1.58213 -0.218682,-1.57262 -0.67796,0.009 -2.696364,0.98798 -2.696364,1.30806 0,0.31987 1.55133,1.32948 2.045143,1.33098 0.178944,5.4e-4 0.5704,-0.47935 0.869903,-1.06642 z m -6.80402,-2.2616 c 2.329148,-0.56324 5.323392,-1.89473 7.00803,-3.11636 0.831134,-0.6027 1.987402,-1.42134 2.569485,-1.8192 1.476191,-1.009 7.974055,-7.24585 7.771349,-7.45919 -0.09138,-0.0962 -0.984351,0.14002 -1.984375,0.52488 -1.000023,0.38487 -2.532599,0.97192 -3.405724,1.30456 -2.320144,0.88393 -4.468869,1.28031 -7.011458,1.29342 -2.713702,0.014 -4.704075,-0.53322 -6.613699,-1.8183 -1.552068,-1.04446 -1.768302,-1.08879 -2.570478,-0.52692 -1.242439,0.87023 -0.911909,-0.97043 0.352918,-1.96534 0.509805,-0.40101 1.01976,-0.5527 1.673405,-0.49777 0.848922,0.0713 0.93289,0.14876 0.86537,0.79779 -0.06459,0.62083 0.09766,0.8059 1.190625,1.35813 3.794744,1.91732 8.274076,1.54297 14.229984,-1.18924 1.600729,-0.73432 4.517761,-1.98838 6.482292,-2.7868 4.3005688,-1.74783 6.5523783,-2.91421 6.9076145,-3.57797 0.2279318,-0.4259 0.1808961,-0.4753 -0.345307,-0.36266 -3.0690195,0.65694 -5.5363585,0.93777 -6.1555325,0.70061 -0.493674,-0.18909 -0.487154,-0.21842 0.132291,-0.59513 3.1402499,-1.90969 4.6102195,-3.001 6.2570991,-4.64529 2.0352713,-2.03208 2.9036794,-3.15981 2.637881,-3.42561 -0.089449,-0.0894 -0.8701287,0.15487 -1.7348443,0.54293 -1.9708461,0.88446 -5.3223458,1.75288 -6.7649138,1.75288 -1.373144,0 -1.788728,0.33666 -2.369512,1.91952 -0.92003,2.50743 -3.614421,5.48485 -4.966168,5.48783 -0.734234,0.002 -1.866837,-1.14988 -1.866837,-1.89797 0,-0.39735 0.459076,-1.25954 1.107287,-2.07959 1.955202,-2.47351 2.307384,-3.69437 1.06572,-3.69437 -0.305568,0 -2.43357,-0.41075 -4.728893,-0.91277 -9.042232,-1.97769 -13.914515,-1.7694 -19.236835,0.82238 -3.696445,1.80003 -6.534568,5.68121 -7.254236,9.92029 -0.770548,4.53877 1.082094,10.05289 4.519438,13.45144 2.75249,2.72143 7.389383,3.66632 12.238024,2.49382 z m 2.698349,-16.15761 c -0.582084,-0.21962 -2.279096,-0.46648 -3.77114,-0.54856 -2.363882,-0.13004 -2.670718,-0.19995 -2.385587,-0.54351 0.210405,-0.25352 0.328767,-1.32616 0.331556,-3.00466 l 0.0043,-2.61039 -1.521354,-1e-5 c -0.836745,0 -1.521354,-0.11301 -1.521354,-0.25112 0,-0.54233 1.891676,-1.67043 3.013022,-1.79682 1.503221,-0.16944 2.689285,0.24047 4.724505,1.6328 2.700267,1.8473 3.848986,2.34373 5.075229,2.19331 0.592828,-0.0727 1.286228,-0.21764 1.54089,-0.32204 0.346736,-0.14216 0.463021,-0.0614 0.463021,0.32152 0,0.63322 -0.955763,1.55868 -1.995758,1.93247 -0.884939,0.31807 -2.308979,2.41052 -2.067957,3.03862 0.19415,0.50594 -0.477433,0.49116 -1.88941,-0.0416 z m -2.7273,-2.57379 c -0.04481,-0.4188 -0.01256,-0.94102 0.07166,-1.16049 0.132511,-0.34532 0.222306,-0.33644 0.666924,0.0659 0.604272,0.54686 1.404922,0.3428 1.279118,-0.326 -0.04799,-0.25511 -0.354441,-0.58135 -0.681013,-0.725 -0.326571,-0.14365 -0.593767,-0.36865 -0.593767,-0.5 0,-0.35499 -0.858436,-0.94057 -1.392951,-0.9502 -0.555221,-0.01 -1.515076,1.45833 -1.516476,2.31983 -5.44e-4,0.33465 0.184412,0.96698 0.411013,1.40517 0.327172,0.63268 0.558701,0.77979 1.12448,0.71447 0.612519,-0.0707 0.701047,-0.18909 0.63101,-0.84371 z m 15.565454,-1.45272 c 1.440382,-1.18801 3.125146,-4.74586 3.433646,-7.2511 0.967189,-7.85424 -5.160487,-15.47087 -14.419717,-17.92353 -2.734362,-0.7243 -7.74384,-0.97524 -10.735674,-0.53777 -5.758209,0.84196 -10.695466,2.98597 -20.617452,8.95315 -11.116139,6.68536 -15.66589,8.35148 -22.754167,8.33255 -3.528996,-0.009 -6.273511,-0.45865 -9.260417,-1.51578 -2.827081,-1.00056 -2.870984,-0.99175 -0.605832,0.12159 3.603554,1.77119 5.833325,2.22689 10.924582,2.23267 3.998509,0.005 4.58812,-0.0579 7.011459,-0.74258 4.832602,-1.36537 9.232272,-3.50534 16.933334,-8.23628 8.520609,-5.2344 14.238298,-7.38508 20.505208,-7.71292 7.030756,-0.3678 13.222594,1.89547 17.398591,6.35963 2.760727,2.95122 3.951315,6.15488 3.693797,9.93933 -0.1932,2.83922 -0.794397,4.49989 -2.31498,6.39457 -1.34666,1.67797 -1.44405,1.86351 -1.138518,2.16904 0.361321,0.36132 1.052651,0.15438 1.94614,-0.58257 z m 7.611784,-7.64156 c 0.292886,-0.25466 0.720666,-1.05833 0.950624,-1.78594 2.6366829,-8.34268 -1.287925,-15.3536 -10.624081,-18.97884 -6.592983,-2.56006 -14.438797,-2.49822 -21.427838,0.1689 -2.674389,1.02058 -6.027354,2.65524 -6.277906,3.06065 -0.23856,0.38599 0.011,0.3441 2.294121,-0.3851 3.579734,-1.14332 6.721972,-1.53922 11.031601,-1.38991 4.487219,0.15547 6.952216,0.7165 10.137985,2.30741 2.76202,1.3793 4.266124,2.45187 6.156553,4.39018 2.998116,3.07406 4.512865,6.4519 4.817437,10.74273 l 0.165596,2.33294 h 1.121694 c 0.689027,0 1.327102,-0.1786 1.654214,-0.46302 z m 3.4669437,-1.36115 c 0.6899922,-0.69 1.0872254,-2.77104 1.0810231,-5.66333 -0.00431,-2.01125 -0.1410903,-2.81967 -0.7869286,-4.65113 -1.0170994,-2.88427 -1.6256496,-3.87165 -3.7007732,-6.00455 -1.96964,-2.02448 -3.405775,-3.0002 -6.75187,-4.58725 -4.368441,-2.07195 -10.323069,-3.13248 -15.065276,-2.68315 -3.544373,0.33583 -7.219104,1.17011 -9.529148,2.16341 -1.02515,0.44081 -2.81641,1.20932 -3.980577,1.70781 -2.222054,0.95146 -4.383108,2.43034 -3.042708,2.08223 0.363802,-0.0945 1.67349,-0.71416 2.910417,-1.37705 2.802154,-1.50174 8.371957,-3.14471 12.014199,-3.54393 7.082215,-0.77627 15.059364,1.15496 20.003402,4.84272 2.387308,1.7807 3.004002,2.44605 4.4990132,4.85402 1.9455389,3.13361 2.4862771,6.56063 1.711653,10.84791 -0.2103413,1.16417 -0.3847812,2.20597 -0.3876442,2.31511 -0.00948,0.36132 0.5164076,0.20599 1.0252177,-0.30282 z m -58.1804247,-8.90486 c 2.038995,-0.87758 1.327154,-0.79914 -1.334884,0.1471 -1.514914,0.53849 -1.895372,0.74416 -1.178658,0.63718 0.582084,-0.0869 1.713177,-0.43981 2.513542,-0.78428 z m 6.803143,-3.05718 c 1.20598,-0.59741 2.192691,-1.19392 2.192691,-1.32557 0,-0.13165 -1.071563,0.29881 -2.38125,0.95657 -2.166688,1.08818 -2.719728,1.45521 -2.192692,1.45521 0.103708,0 1.17527,-0.48879 2.381251,-1.08621 z m 5.279907,-2.97009 c 1.043126,-0.55747 2.105755,-1.24471 2.361399,-1.5272 0.457716,-0.50577 0.449625,-0.50726 -0.53043,-0.0978 -0.916673,0.38301 -4.653602,2.73861 -4.653602,2.93343 0,0.1413 0.828705,-0.24286 2.822633,-1.30847 z"
         id="path15" /></g></g></svg>
